<?xml version="1.0" encoding="UTF-8" standalone="no"?>
<!-- Created with Inkscape (http://www.inkscape.org/) -->

<svg
   width="131.47089mm"
   height="124.93698mm"
   viewBox="0 0 131.47089 124.93698"
   version="1.1"
   id="svg1"
   xml:space="preserve"
   xmlns:inkscape="http://www.inkscape.org/namespaces/inkscape"
   xmlns:sodipodi="http://sodipodi.sourceforge.net/DTD/sodipodi-0.dtd"
   xmlns="http://www.w3.org/2000/svg"
   xmlns:svg="http://www.w3.org/2000/svg"><sodipodi:namedview
     id="namedview1"
     pagecolor="#ffffff"
     bordercolor="#000000"
     borderopacity="0.25"
     inkscape:showpageshadow="2"
     inkscape:pageopacity="0.0"
     inkscape:pagecheckerboard="0"
     inkscape:deskcolor="#d1d1d1"
     inkscape:document-units="mm"><inkscape:page
       x="0"
       y="0"
       width="131.47089"
       height="124.93698"
       id="page2"
       margin="0"
       bleed="0" /></sodipodi:namedview><defs
     id="defs1"><inkscape:path-effect
       effect="bspline"
       id="path-effect72"
       is_visible="true"
       lpeversion="1.3"
       weight="33.333333"
       steps="2"
       helper_size="0"
       apply_no_weight="true"
       apply_with_weight="true"
       only_selected="false"
       uniform="false" /><style
       id="style1-6">.cls-1_mountain-1-28{fill:#ff912e;}.cls-2_mountain-1-28{fill:#cc630d;}.cls-3_mountain-1-28{fill:#fcd5b9;}.cls-4_mountain-1-28{fill:#68e1fd;}.cls-5_mountain-1-28,.cls-6_mountain-1-28{fill:#351b0c;}.cls-5_mountain-1-28{opacity:0.24;}.cls-6_mountain-1-28{opacity:0.4;}.cls-11_mountain-1-28,.cls-12_mountain-1-28,.cls-13_mountain-1-28,.cls-7_mountain-1-28{opacity:0.68;}.cls-7_mountain-1-28{fill:url(#linear-gradient);}.cls-8_mountain-1-28{fill:#bc532a;}.cls-9_mountain-1-28{fill:#2c9135;}.cls-10_mountain-1-28{fill:#156819;}.cls-11_mountain-1-28{fill:url(#linear-gradient-2-mountain-1-28);}.cls-12_mountain-1-28{fill:url(#linear-gradient-3-mountain-1-28);}.cls-13_mountain-1-28{fill:url(#linear-gradient-4-mountain-1-28);}</style></defs><g
     inkscape:label="Layer 1"
     inkscape:groupmode="layer"
     id="layer1"
     transform="translate(-177.62467,-352.09711)"><path
       style="fill:#ddff55;fill-opacity:1;stroke-width:0.264583"
       d="m 53.28187,119.74735 c -11.246287,8.04509 -24.050534,14.27874 -26.451299,28.09434 -2.400765,13.8156 5.601889,35.21217 16.13204,44.14159 10.530152,8.92942 23.587112,5.39141 35.549324,6.9078 11.962213,1.51639 22.828975,8.08699 33.316975,6.19148 10.488,-1.89551 20.59662,-12.25684 26.03011,-20.34396 5.4335,-8.08711 6.19165,-13.89956 9.89828,-22.07096 3.70664,-8.1714 10.36147,-18.70121 10.10868,-30.20011 -0.25279,-11.49891 -7.41306,-23.96621 -20.89168,-30.87392 C 123.49567,94.685909 103.69963,93.338093 88.957605,97.592221 74.21558,101.84635 64.528156,111.70225 53.28187,119.74735 Z"
       id="path71"
       inkscape:path-effect="#path-effect72"
       inkscape:original-d="m 54.840343,121.55855 c -12.804762,6.23389 -25.609007,12.46754 -38.413512,18.70131 8.002975,21.39743 16.00563,42.794 24.008444,64.191 13.057487,-3.53816 26.114449,-7.07617 39.171674,-10.61426 10.867196,6.57087 21.733961,13.14146 32.600941,19.7122 10.10902,-10.36175 20.21764,-20.72308 30.32645,-31.08462 0.75818,-5.81269 1.51633,-11.62514 2.27449,-17.43771 6.65511,-10.53023 13.30994,-21.06004 19.96492,-31.59006 -7.16056,-12.46779 -14.32083,-24.93509 -21.48124,-37.402631 -19.79684,-1.347869 -39.59288,-2.695686 -59.389313,-4.043529 -9.687616,9.8561 -19.375042,19.712 -29.062854,29.5683 z"
       sodipodi:nodetypes="ccccccccccc"
       inkscape:export-filename="rocket_linkversity.svg"
       inkscape:export-xdpi="96"
       inkscape:export-ydpi="96"
       transform="translate(151.22259,271.61116)" /><g
       id="g71"
       transform="translate(15.725635,-31.808669)"><polygon
         id="Base_brainstorming-8"
         class="st0_brainstorming-8"
         points="260.4,222.8 43.3,347.9 231,456.7 448.5,331.4 "
         transform="matrix(0.26458333,0,0,0.26458333,169.84806,367.34729)" /><g
         id="Shadow_brainstorming-8"
         transform="matrix(0.26458333,0,0,0.26458333,169.84806,367.34729)">
	
		<linearGradient
   id="SVGID_1_-brainstorming-8"
   gradientUnits="userSpaceOnUse"
   x1="162.20171"
   y1="871.86072"
   x2="150.20171"
   y2="896.12073"
   gradientTransform="translate(0,-498)">
		<stop
   offset="0"
   style="stop-color:#6B5151"
   id="stop1-4" />
		<stop
   offset="1"
   style="stop-color:#FECAB5"
   id="stop2-5" />
	</linearGradient>
	<path
   class="st1_brainstorming-8"
   d="m 172.7,336.6 c -23.1,13.5 -39.6,22.5 -75.1,42.8 26.9,16.3 51.8,30 54.8,31.8 l 75.7,-45.5 c -6.2,-3.3 -26.7,-14.9 -55.4,-29.1 z"
   id="path2-2" />
	
		<linearGradient
   id="SVGID_00000012460180952875623770000000952598206794997932_-brainstorming-8"
   gradientUnits="userSpaceOnUse"
   x1="214.67751"
   y1="892.76611"
   x2="185.8475"
   y2="909.98602"
   gradientTransform="translate(0,-498)">
		<stop
   offset="0"
   style="stop-color:#6B5151"
   id="stop3-5" />
		<stop
   offset="1"
   style="stop-color:#FECAB5"
   id="stop4-4" />
	</linearGradient>
	<path
   style="fill:url(#SVGID_00000012460180952875623770000000952598206794997932_)"
   d="m 207.4,384.4 c -11.3,6.6 -19.3,11 -36.6,20.9 13.1,8 23.3,15.3 24.8,16.2 l 38.9,-22.9 c -3.1,-1.6 -13.1,-7.3 -27.1,-14.2 z"
   id="path4-7" />
	
		<linearGradient
   id="SVGID_00000137821290659508159970000016013573980765021365_-brainstorming-8"
   gradientUnits="userSpaceOnUse"
   x1="333.4837"
   y1="867.24298"
   x2="301.4437"
   y2="886.38312"
   gradientTransform="translate(0,-498)">
		<stop
   offset="0"
   style="stop-color:#6B5151"
   id="stop5" />
		<stop
   offset="1"
   style="stop-color:#FECAB5"
   id="stop6" />
	</linearGradient>
	<path
   style="fill:url(#SVGID_00000137821290659508159970000016013573980765021365_)"
   d="m 322.1,361.5 c -11.3,6.6 -19.3,11 -36.6,20.9 13.1,8 23.3,15.3 24.8,16.2 l 44.3,-26.5 c -3.1,-1.7 -18.4,-6.6 -32.5,-10.6 z"
   id="path6-4" />
	
		<linearGradient
   id="SVGID_00000061465133488972200540000010954630196421843076_-brainstorming-8"
   gradientUnits="userSpaceOnUse"
   x1="405.75"
   y1="832.75"
   x2="394.45999"
   y2="844.03998"
   gradientTransform="translate(0,-498)">
		<stop
   offset="0"
   style="stop-color:#6B5151"
   id="stop7" />
		<stop
   offset="1"
   style="stop-color:#FECAB5"
   id="stop8" />
	</linearGradient>
	<path
   style="fill:url(#SVGID_00000061465133488972200540000010954630196421843076_)"
   d="m 401.2,330.8 c -7.5,4.4 -12.9,7.3 -24.4,13.9 8.7,5.3 15.5,10.2 16.5,10.8 l 26.4,-15.7 c -2,-1.1 -9.2,-4.4 -18.5,-9 z"
   id="path8-4" />
</g><g
         id="Dashed_Line_brainstorming-8"
         transform="matrix(0.26458333,0,0,0.26458333,169.84806,367.34729)">
	<path
   class="st5_brainstorming-8"
   d="m 153.6,209 c -0.6,-0.3 -1.2,-0.6 -1.8,-0.8 l 0.4,-0.9 c 0.6,0.2 1.3,0.5 1.9,0.8 z"
   id="path9-3" />
	<path
   class="st5_brainstorming-8"
   d="m 148.1,206.8 c -1.4,-0.5 -2.6,-1.1 -3.7,-1.6 l 0.4,-0.9 c 1.1,0.5 2.3,1 3.6,1.6 z m -7.3,-3.5 c -1.2,-0.7 -2.4,-1.4 -3.4,-2.2 l 0.6,-0.8 c 1,0.7 2.2,1.5 3.3,2.1 z m -6.6,-4.7 c -1,-0.9 -1.9,-1.9 -2.8,-2.9 l 0.8,-0.6 c 0.8,1 1.8,1.9 2.7,2.8 z m 162.4,-1.8 h -0.9 v -1 c 1.4,0 2.7,0 4,-0.1 v 1 c -1,0.1 -2.1,0.1 -3.1,0.1 z m -5,-0.2 c -1.3,-0.1 -2.6,-0.2 -4,-0.4 l 0.1,-1 c 1.4,0.2 2.7,0.3 4,0.4 z m 12.1,-0.2 -0.1,-1 c 1.3,-0.2 2.6,-0.4 3.9,-0.7 l 0.2,1 c -1.3,0.3 -2.6,0.5 -4,0.7 z m -20,-0.8 c -1.3,-0.2 -2.6,-0.4 -4,-0.7 l 0.2,-1 c 1.4,0.3 2.7,0.5 3.9,0.7 z m 28,-1 -0.3,-1 c 1.3,-0.4 2.5,-0.9 3.7,-1.4 l 0.4,0.9 c -1.3,0.6 -2.6,1.1 -3.8,1.5 z m -35.9,-0.5 c -1.3,-0.3 -2.6,-0.6 -3.9,-1 l 0.2,-1 c 1.3,0.3 2.6,0.6 3.9,1 z M 129,192.4 c -0.7,-1.2 -1.3,-2.4 -1.9,-3.6 l 0.9,-0.4 c 0.5,1.2 1.1,2.4 1.8,3.5 z m 139,-0.3 c -1.3,-0.4 -2.6,-0.7 -3.9,-1.1 l 0.3,-1 c 1.3,0.4 2.5,0.7 3.8,1.1 z m 51,-0.7 -0.5,-0.9 c 0.7,-0.4 1.3,-0.8 2,-1.2 0.5,-0.3 0.9,-0.6 1.4,-0.9 l 0.6,0.8 -1.4,0.9 c -0.7,0.5 -1.4,0.9 -2.1,1.3 z m -58.7,-1.5 -1.8,-0.5 -2,-0.6 0.3,-1 2,0.6 1.8,0.5 z m -7.7,-2.4 c -1.3,-0.4 -2.5,-0.8 -3.8,-1.3 l 0.3,-0.9 c 1.3,0.4 2.5,0.9 3.8,1.3 z m 73.1,-0.7 -0.6,-0.8 c 1,-0.8 2.1,-1.6 3.1,-2.5 l 0.6,0.8 c -1,0.9 -2,1.7 -3.1,2.5 z m -199.9,-1.9 c -0.3,-1.3 -0.6,-2.7 -0.8,-4 l 1,-0.1 c 0.2,1.3 0.4,2.6 0.8,3.9 z m 119.2,0 c -1.2,-0.5 -2.5,-1 -3.8,-1.4 l 0.4,-0.9 c 1.2,0.5 2.5,1 3.7,1.4 z m -7.5,-3 c -1.2,-0.5 -2.4,-1.1 -3.7,-1.7 l 0.4,-0.9 c 1.2,0.6 2.4,1.1 3.6,1.6 z m 94.3,-0.3 -0.7,-0.7 c 1,-0.9 1.9,-1.9 2.8,-2.8 l 0.7,0.7 c -0.8,1 -1.8,1.9 -2.8,2.8 z m -101.5,-3.1 c -1.2,-0.6 -2.4,-1.3 -3.5,-1.9 l 0.5,-0.9 c 1.1,0.6 2.3,1.3 3.5,1.9 z m -105.6,-1.6 c 0,-0.3 0,-0.6 0,-0.9 0,-1 0,-2.1 0.1,-3.1 l 1,0.1 c -0.1,1 -0.1,2.1 -0.1,3 0,0.3 0,0.6 0,0.9 z m 212.7,-1.1 -0.8,-0.6 c 0.9,-1 1.7,-2 2.5,-3.1 l 0.8,0.6 c -0.8,1 -1.6,2.1 -2.5,3.1 z m -114.1,-1.4 c -1.1,-0.7 -2.3,-1.5 -3.3,-2.3 l 0.6,-0.8 c 1,0.8 2.1,1.5 3.3,2.2 z m -6.5,-4.6 c -1.1,-0.9 -2.1,-1.8 -3.1,-2.6 l 0.7,-0.7 c 0.9,0.9 1.9,1.8 3,2.6 z m 125.5,-0.4 -0.8,-0.6 c 0.8,-1.1 1.5,-2.2 2.1,-3.4 l 0.9,0.5 c -0.7,1.2 -1.4,2.4 -2.2,3.5 z m -216,-0.4 -1,-0.1 c 0.2,-1.3 0.4,-2.6 0.8,-4 l 1,0.2 c -0.4,1.3 -0.7,2.6 -0.8,3.9 z m 84.6,-4.8 c -0.9,-1 -1.8,-2 -2.6,-3.1 l 0.8,-0.6 c 0.8,1 1.7,2 2.6,3 z m 135.6,-1.7 -0.9,-0.4 c 0.6,-1.2 1.2,-2.4 1.7,-3.6 l 0.9,0.4 c -0.6,1.2 -1.2,2.4 -1.7,3.6 z M 128,161.3 127,161 c 0.4,-1.3 0.9,-2.6 1.4,-3.8 l 0.9,0.4 c -0.5,1.2 -0.9,2.4 -1.3,3.7 z m 78,-3.5 c -0.2,-0.4 -0.5,-0.7 -0.7,-1.1 -0.4,-0.8 -0.9,-1.5 -1.4,-2.3 l 0.8,-0.6 c 0.5,0.8 1,1.5 1.5,2.3 0.2,0.4 0.4,0.7 0.7,1.1 z m 143.7,-2.7 -1,-0.3 c 0.5,-1.2 0.9,-2.5 1.2,-3.8 l 1,0.3 c -0.4,1.2 -0.8,2.5 -1.2,3.8 z M 131,154 l -0.9,-0.5 c 0.6,-1.2 1.3,-2.4 2.1,-3.5 l 0.8,0.6 c -0.7,1.1 -1.4,2.2 -2,3.4 z m 70.5,-2.7 c -0.8,-1 -1.7,-2 -2.6,-3 l 0.7,-0.7 c 0.9,1 1.8,2 2.7,3 z m -66.1,-3.8 -0.8,-0.6 c 0.9,-1 1.8,-2 2.8,-2.9 l 0.7,0.7 c -0.9,0.8 -1.8,1.8 -2.7,2.8 z m 216.4,-0.2 -1,-0.2 c 0.3,-1.3 0.5,-2.6 0.7,-3.9 l 1,0.1 c -0.1,1.4 -0.4,2.7 -0.7,4 z M 196,145.6 c -1,-0.9 -2,-1.7 -3.1,-2.5 l 0.6,-0.8 c 1.1,0.8 2.1,1.6 3.2,2.5 z m -54.8,-3.6 -0.6,-0.8 c 1.1,-0.8 2.2,-1.6 3.4,-2.3 l 0.5,0.9 c -1.2,0.7 -2.3,1.4 -3.3,2.2 z m 48.4,-1.1 c -1.1,-0.7 -2.3,-1.3 -3.5,-1.9 l 0.4,-0.9 c 1.2,0.6 2.4,1.2 3.5,1.9 z m 163.4,-1.6 -1,-0.1 c 0.1,-1.3 0.1,-2.6 0.1,-4 h 1 c 0,1.5 0,2.8 -0.1,4.1 z m -205.1,-1.3 -0.4,-0.9 c 1.2,-0.6 2.5,-1.1 3.8,-1.5 l 0.3,0.9 c -1.3,0.4 -2.5,0.9 -3.7,1.5 z m 34.7,-0.6 c -1.2,-0.5 -2.5,-0.9 -3.7,-1.3 l 0.3,-1 c 1.3,0.4 2.6,0.8 3.8,1.3 z m -27.2,-2 -0.2,-1 c 1.3,-0.3 2.6,-0.6 4,-0.8 l 0.1,1 c -1.4,0.2 -2.7,0.5 -3.9,0.8 z m 19.6,-0.2 c -1.3,-0.3 -2.6,-0.5 -3.9,-0.6 l 0.1,-1 c 1.3,0.2 2.7,0.4 4,0.7 z m -11.8,-0.9 -0.1,-1 c 0.8,0 1.6,-0.1 2.4,-0.1 v 0 c 0.5,0 1.1,0 1.6,0 v 1 c -0.5,0 -1.1,0 -1.6,0 -0.7,0 -1.5,0 -2.3,0.1 z m 188.8,-3 c -0.1,-1.3 -0.2,-2.6 -0.4,-4 l 1,-0.1 c 0.2,1.3 0.3,2.7 0.4,4 z m -1.1,-7.8 c -0.3,-1.3 -0.6,-2.6 -0.9,-3.9 l 1,-0.3 c 0.4,1.3 0.7,2.6 1,3.9 z m -121.2,-4.9 -1,-0.2 c 0.3,-1.3 0.7,-2.6 1.2,-3.9 l 0.9,0.3 c -0.5,1.2 -0.8,2.5 -1.1,3.8 z m 119.1,-2.8 c -0.4,-1.2 -0.9,-2.5 -1.4,-3.7 l 0.9,-0.4 c 0.5,1.2 1,2.5 1.5,3.8 z m -116.5,-4.7 -0.9,-0.4 c 0.6,-1.2 1.2,-2.4 1.8,-3.6 l 0.9,0.5 c -0.7,1.2 -1.3,2.3 -1.8,3.5 z m 113.4,-2.6 c -0.6,-1.2 -1.2,-2.3 -1.9,-3.5 l 0.9,-0.5 c 0.7,1.2 1.3,2.3 1.9,3.6 z m -109.5,-4.3 -0.8,-0.6 c 0.7,-1.1 1.5,-2.2 2.4,-3.3 l 0.8,0.6 c -1,1.2 -1.7,2.2 -2.4,3.3 z m 105.5,-2.5 c -0.7,-1.1 -1.5,-2.2 -2.3,-3.2 l 0.8,-0.6 c 0.8,1 1.6,2.2 2.4,3.3 z M 241,98 240.3,97.3 c 0.9,-1 1.9,-2 2.8,-2.9 l 0.7,0.7 c -0.9,1 -1.9,1.9 -2.8,2.9 z m 95.8,-2.6 c -0.9,-1 -1.8,-2 -2.7,-2.9 l 0.7,-0.7 c 1,0.9 1.9,1.9 2.8,2.9 z m -90.1,-2.9 -0.6,-0.8 c 1,-0.8 2.1,-1.7 3.2,-2.5 l 0.6,0.8 c -1.1,0.8 -2.1,1.7 -3.2,2.5 z m 84.4,-2.6 c -1,-0.9 -2,-1.7 -3.1,-2.5 l 0.6,-0.8 c 1.1,0.8 2.1,1.6 3.2,2.5 z m -78,-2 -0.5,-0.8 c 1.1,-0.7 2.3,-1.4 3.4,-2.1 l 0.5,0.9 c -1.1,0.5 -2.2,1.2 -3.4,2 z m 71.7,-2.7 c -0.5,-0.3 -1,-0.7 -1.6,-1 -0.6,-0.3 -1.2,-0.7 -1.8,-1 l 0.5,-0.9 c 0.6,0.3 1.2,0.7 1.9,1 0.7,0.3 1.1,0.7 1.6,1 z M 260,83.9 259.5,83 c 1.2,-0.6 2.4,-1.2 3.7,-1.7 l 0.4,0.9 c -1.1,0.6 -2.3,1.1 -3.6,1.7 z m 57.8,-2.4 c -1.2,-0.5 -2.4,-1 -3.7,-1.5 l 0.3,-0.9 c 1.3,0.5 2.5,1 3.8,1.5 z m -50.4,-0.7 -0.3,-0.9 c 1.3,-0.5 2.5,-0.9 3.8,-1.3 l 0.3,1 c -1.3,0.3 -2.6,0.7 -3.8,1.2 z m 43,-2.1 c -1.2,-0.4 -2.5,-0.7 -3.9,-1 l 0.2,-1 c 1.3,0.3 2.6,0.6 3.9,1 z m -35.4,-0.2 -0.2,-1 c 1.3,-0.3 2.6,-0.6 3.9,-0.9 l 0.2,1 c -1.3,0.3 -2.6,0.6 -3.9,0.9 z M 302.6,77 c -1.3,-0.2 -2.6,-0.4 -3.9,-0.5 l 0.1,-1 c 1.3,0.1 2.7,0.3 4,0.5 z m -19.8,0 -0.1,-1 c 1.3,-0.2 2.7,-0.3 4,-0.4 l 0.1,1 c -1.3,0 -2.7,0.2 -4,0.4 z m 11.9,-0.7 c -1.3,0 -2.6,0 -4,0 v -1 c 1.4,0 2.7,0 4,0 z"
   id="path10-0" />
	<path
   class="st5_brainstorming-8"
   d="m 228.5,124.6 -1,-0.1 c 0.1,-0.7 0.2,-1.3 0.3,-2 l 1,0.2 c -0.1,0.5 -0.2,1.2 -0.3,1.9 z"
   id="path11-7" />
</g><g
         id="Big_Box_brainstorming-8"
         transform="matrix(0.26458333,0,0,0.26458333,169.84806,367.34729)">
	<polygon
   class="st6_brainstorming-8 targetColor"
   points="168.6,339.8 167.7,401.5 231.2,365.8 231.2,303.6 "
   style="fill:#68e1fd"
   id="polygon11" />
	<polygon
   class="st6_brainstorming-8 targetColor"
   points="168.6,339.8 115.2,308 115.2,370.6 167.7,401.5 "
   style="fill:#68e1fd"
   id="polygon12" />
	<polygon
   class="st6_brainstorming-8 targetColor"
   points="176.5,271.9 115.2,308 168.6,339.8 231.2,303.6 "
   style="fill:#68e1fd"
   id="polygon13" />
	<polygon
   class="st7_brainstorming-8"
   points="168.6,339.8 167.7,401.5 231.2,365.8 231.2,303.6 "
   id="polygon14" />
	<polygon
   class="st8_brainstorming-8"
   points="168.6,339.8 115.2,308 115.2,370.6 167.7,401.5 "
   id="polygon15" />
	<polygon
   class="st6_brainstorming-8 targetColor"
   points="176.5,271.9 115.2,308 168.6,339.8 231.2,303.6 "
   style="fill:#68e1fd"
   id="polygon16" />
</g><g
         id="Lamp_brainstorming-8"
         transform="matrix(0.26458333,0,0,0.26458333,169.84806,367.34729)">
	<path
   class="st5_brainstorming-8"
   d="m 254.1,174.5 c 0,-1.9 0,-3.9 -0.1,-6 -13.1,7.1 -30.3,7.6 -44.1,1.3 v 5.3 c 7.2,2.5 14.8,3.8 22.4,3.8 7.5,0 14.9,-1.4 21.8,-4.4 z"
   id="path27-6" />
	<path
   class="st5_brainstorming-8"
   d="m 209.9,179.4 v 1.4 c 0,0.8 0.4,1.7 1,2.2 1.9,2.1 7.4,5.9 20.6,5.9 18,0 21.5,-7.5 22.3,-9.1 0.1,-0.4 0.2,-0.8 0.2,-1.2 -14.2,5.3 -29.7,5.5 -44.1,0.8 z"
   id="path28-8" />
	<path
   class="st5_brainstorming-8"
   d="m 253.9,163.6 c -0.1,-2.8 -0.2,-4.8 -0.2,-4.8 0,0 -0.8,-2 -4.5,-2.4 -3.7,-0.4 -36.6,0 -36.6,0 -0.6,0.3 -2.8,0.1 -2.8,4.2 v 4.6 c 13.6,7.4 31.5,6.7 44.1,-1.6 z"
   id="path29-9" />
	<path
   class="st11_brainstorming-8"
   d="m 254,168.5 c 0,-1.7 -0.1,-3.4 -0.1,-4.9 -12.6,8.3 -30.5,9 -44,1.6 v 4.6 c 13.8,6.3 31,5.8 44.1,-1.3 z"
   id="path30-2" />
	<path
   class="st11_brainstorming-8"
   d="m 232.3,178.9 c -7.6,0 -15.2,-1.3 -22.4,-3.8 v 4.4 c 14.3,4.7 29.8,4.5 44,-0.6 0.1,-1 0.1,-2.6 0.1,-4.4 -6.8,2.9 -14.2,4.4 -21.7,4.4 z"
   id="path31-6" />
	<path
   class="st12_brainstorming-8"
   d="m 231.6,167.6 c 0,0 -16.4,-0.7 -19.1,-10.5 -2.7,-9.8 -1,-16.5 -8.1,-27.6 -7.1,-11.1 -11.5,-20.4 -11.5,-31.1 0,-10.7 6.8,-35.1 36.1,-35.8 29.3,-0.7 42.3,20.7 41.9,35 -0.4,14.3 -9.5,23 -13.4,33.5 -3.9,10.5 -5.1,22.7 -5.9,24.7 -0.8,2 -3,10 -20,11.8 z"
   id="path32-6" />
	<path
   class="st5_brainstorming-8"
   d="m 254,93.8 c -0.4,-2.4 -1.7,-4.6 -3.5,-6.2 -3.1,-2.5 -7.6,-2.6 -10.8,-0.1 -1.9,-1.7 -4.2,-2.7 -6.7,-2.9 -2.9,-0.2 -5.8,0.9 -7.9,2.9 -0.5,-0.3 -1.1,-0.6 -1.7,-0.8 -2.7,-0.8 -5.6,-0.2 -7.8,1.5 -5.6,4.2 -6.6,11.5 -5.5,17.8 1.4,8.2 4.4,16.2 7.1,24.1 0.4,1.3 5.8,15 5.6,15.1 -0.2,0.1 -0.4,0.2 -0.5,0.3 0,0 -2.6,1.4 -3,3.7 -0.2,1.8 -0.2,3.6 0,5.4 0,0 1.4,4.5 11.7,4.6 10.3,0.1 12.4,-5.1 12.4,-5.1 V 149 c 0,0 -0.3,-2.1 -3.2,-3.7 -0.3,-0.2 4.4,-11.6 4.8,-12.7 1.6,-4.3 3,-8.7 4.4,-13.1 1.6,-5.2 3.4,-10.4 4.3,-15.7 0.4,-3 1,-6.7 0.3,-10 z m -12.8,0.4 c 0.2,1.8 -0.3,4.3 -2.5,5 -2.4,0.7 -1.9,-3.3 -1.5,-4.4 0.5,-1.7 1.3,-3.2 2.4,-4.6 0.9,1.2 1.4,2.5 1.6,4 z m -16,-4.3 c 2.1,2.1 2.8,5.3 1.8,8.1 -0.3,0.8 -0.8,1.5 -1.4,2.1 -0.5,0.6 -1.4,0.8 -2,0.3 -0.2,-0.2 -0.4,-0.4 -0.5,-0.6 -1,-1.6 -0.6,-3.6 -0.1,-5.3 0.5,-1.7 1.2,-3.2 2.2,-4.6 z m 13,54.8 c -1.4,-0.5 -2.9,-0.7 -4.4,-0.8 -3.1,-0.3 -6.3,-0.1 -9.3,0.6 -0.5,0.1 -7.1,-19.8 -7.7,-21.6 -1.1,-3.7 -2.2,-7.4 -3.2,-11.1 -1.6,-6.2 -3.2,-13.1 0.3,-19 1.9,-3.2 5.8,-6.1 9.7,-4 v 0 c -0.7,0.9 -1.2,1.9 -1.7,2.9 -1.1,2.1 -1.5,4.4 -1.3,6.7 0.2,1.7 1.4,4.1 3.6,4.1 2.2,0 3.8,-2.1 4.5,-3.7 0.8,-2.2 0.8,-4.6 0,-6.8 -0.5,-1.3 -1.3,-2.5 -2.3,-3.5 0.8,-0.8 1.8,-1.4 2.9,-1.8 3.1,-1 6.6,-0.3 9,1.9 -1.3,1.5 -2.3,3.3 -2.9,5.3 -0.6,1.9 -0.9,4.9 0.9,6.4 1.6,1.3 4.1,0.2 5.3,-1 1.5,-1.8 2,-4.2 1.4,-6.5 -0.4,-1.5 -1.1,-2.8 -2,-4 2.5,-2 6,-1.9 8.4,0.2 4.1,3.7 2.9,10.6 1.9,15.2 -3,13.9 -7.9,27.2 -13.1,40.5 z"
   id="path33-4" />
	<path
   class="st13_brainstorming-8"
   d="m 209.7,72.9 c -2.8,2.2 -5.1,5 -6.6,8.2 -0.6,1.1 -0.3,2.5 0.8,3.1 0,0 0,0 0.1,0 1,0.6 2.9,0.3 3.4,-0.8 1.3,-2.9 3.3,-5.3 5.8,-7.2 2.6,-2 -1,-5.3 -3.5,-3.3 z"
   id="path34-9" />
	<path
   class="st13_brainstorming-8"
   d="m 203.4,86.6 c -1.3,0 -2.3,1 -2.3,2.3 0,1.3 1,2.3 2.3,2.3 v 0 c 1.3,0 2.3,-1 2.3,-2.3 0.1,-1.2 -1,-2.3 -2.3,-2.3 0.1,0 0.1,0 0,0 z"
   id="path35" />
	<path
   class="st12_brainstorming-8"
   d="m 287,69.6 -6.5,6.6 c -2.3,2.3 1.3,5.9 3.6,3.6 l 6.5,-6.6 c 2.4,-2.3 -1.2,-5.9 -3.6,-3.6 z"
   id="path36-5" />
	<path
   class="st12_brainstorming-8"
   d="m 297,86.7 h -9.8 c -3.3,0 -3.3,5.1 0,5.1 h 9.8 c 3.3,-0.1 3.3,-5.1 0,-5.1 z"
   id="path37-0" />
	<path
   class="st12_brainstorming-8"
   d="m 290.1,106.9 -5.4,-5.4 c -2.3,-2.3 -5.9,1.3 -3.6,3.6 l 5.4,5.4 c 2.3,2.3 5.9,-1.3 3.6,-3.6 z"
   id="path38-4" />
	<path
   class="st12_brainstorming-8"
   d="m 177,75.1 6.5,6.6 c 2.3,2.3 -1.3,5.9 -3.6,3.6 l -6.5,-6.6 c -2.3,-2.3 1.3,-5.9 3.6,-3.6 z"
   id="path39-8" />
	<path
   class="st12_brainstorming-8"
   d="m 167,92.2 h 9.8 c 3.3,0 3.3,5.1 0,5.1 H 167 c -3.2,0 -3.2,-5.1 0,-5.1 z"
   id="path40-7" />
	<path
   class="st12_brainstorming-8"
   d="m 174,112.4 5.4,-5.4 c 2.3,-2.3 5.9,1.3 3.6,3.6 l -5.4,5.3 c -2.3,2.4 -5.9,-1.1 -3.6,-3.5 z"
   id="path41-1" />
</g><g
         id="Screen_1_brainstorming-8"
         transform="matrix(0.26458333,0,0,0.26458333,169.84806,367.34729)">
	<path
   class="st6_brainstorming-8 targetColor"
   d="m 87.4,238.9 v 38.7 c 0,1.9 1.5,3.4 3.4,3.4 0.6,0 1.2,-0.2 1.7,-0.4 l 39.7,-22.9 c 1,-0.6 1.7,-1.7 1.7,-2.9 v -38.7 c 0,-1.9 -1.5,-3.4 -3.4,-3.4 -0.6,0 -1.2,0.2 -1.7,0.5 l -39.7,22.9 c -1,0.4 -1.7,1.5 -1.7,2.8 z"
   style="fill:#68e1fd"
   id="path42-7" />
</g><g
         id="Screen_2_brainstorming-8"
         transform="matrix(0.26458333,0,0,0.26458333,169.84806,367.34729)">
	<path
   class="st6_brainstorming-8 targetColor"
   d="m 423.2,170.8 v 38.7 c 0,1.9 -1.5,3.4 -3.4,3.4 -0.6,0 -1.2,-0.2 -1.7,-0.5 l -39.7,-22.9 c -1,-0.6 -1.7,-1.7 -1.7,-2.9 v -38.7 c 0,-1.9 1.5,-3.4 3.4,-3.4 0.6,0 1.2,0.2 1.7,0.5 l 39.7,22.9 c 1.1,0.5 1.7,1.7 1.7,2.9 z"
   style="fill:#68e1fd"
   id="path43-2" />
	<path
   class="st7_brainstorming-8"
   d="m 423.2,170.8 v 38.7 c 0,1.9 -1.5,3.4 -3.4,3.4 -0.6,0 -1.2,-0.2 -1.7,-0.5 l -39.7,-22.9 c -1,-0.6 -1.7,-1.7 -1.7,-2.9 v -38.7 c 0,-1.9 1.5,-3.4 3.4,-3.4 0.6,0 1.2,0.2 1.7,0.5 l 39.7,22.9 c 1.1,0.5 1.7,1.7 1.7,2.9 z"
   id="path44-7" />
</g><g
         id="Plant_brainstorming-8"
         transform="matrix(0.26458333,0,0,0.26458333,169.84806,367.34729)">
	<polyline
   class="st6_brainstorming-8 targetColor"
   points="395.4,318.9 395.4,335.4 422.1,335.4 422.1,318.9 	"
   style="fill:#68e1fd"
   id="polyline44" />
	<ellipse
   class="st5_brainstorming-8"
   cx="408.70001"
   cy="318.89999"
   rx="13.4"
   ry="6.5999999"
   id="ellipse44" />
	<ellipse
   class="st6_brainstorming-8 targetColor"
   cx="408.70001"
   cy="336"
   rx="13.4"
   ry="6.5999999"
   style="fill:#68e1fd"
   id="ellipse45" />
	<path
   class="st5_brainstorming-8"
   d="m 423.6,280.5 c -2.8,-1.1 -6.7,-5 -10.1,-4.9 -1.3,3.2 -1.7,6.9 -2.1,10.1 -0.6,5.6 -0.8,11.3 -0.4,16.9 0.1,1.3 0.2,2.5 0.3,3.8 0,0.4 0.1,0.7 0.3,1.1 v 13.1 c 0,0.2 0.3,0.4 0.5,0.4 0.2,0 0.3,-0.2 0.4,-0.4 V 308 c 1.3,-0.4 2.6,-1 3.8,-1.8 2.5,-1.6 4.4,-4 5.4,-6.8 2.2,-6 0.8,-12.7 2.8,-18.6 -0.3,0 -0.5,-0.1 -0.9,-0.3 z"
   id="path45-2" />
	<path
   class="st9_brainstorming-8"
   d="m 417.9,270.7 c -1.6,0.9 -2.9,2.3 -3.8,3.9 -0.2,0.4 -0.4,0.8 -0.6,1.2 l -0.1,0.2 v 0 c -0.3,0.7 -0.5,1.4 -0.6,2.1 0.3,-0.5 0.8,-0.9 1.4,-1.1 0.7,-0.3 1.5,-0.4 2.2,-0.2 0.7,0.3 1.4,0.6 2,1.1 1,0.6 1.9,1.2 2.8,1.8 4.4,2.8 10.3,3.1 13.7,-1 0.1,-0.2 0.1,-0.3 0.1,-0.5 0.6,-2.8 -7.3,-13.2 -17.1,-7.5 z"
   id="path46-2" />
	<path
   class="st5_brainstorming-8"
   d="m 433,280.4 0.5,-0.4 c 0,-0.1 0,-0.2 -0.1,-0.3 -2.7,-2.7 -5.5,-5.4 -9.2,-6.8 -2.6,-1 -5.5,-1.3 -8.2,-0.8 -0.3,0.4 -0.6,0.7 -0.8,1.1 3,-1 6.7,-0.4 9.4,0.8 3.2,1.4 5.8,3.9 8.2,6.3 0.1,0.1 0.1,0.1 0.2,0.1 z"
   id="path47-6" />
	<path
   class="st5_brainstorming-8"
   d="m 388.2,286.4 c -4,2 -6.3,6.3 -6,10.7 0.3,7.9 13.3,0.2 16.7,-6.5 3.4,-6.7 4,2.8 4,2.8"
   id="path48-1" />
	<path
   class="st9_brainstorming-8"
   d="m 399.9,283.6 c -2.4,0 -4.9,0.3 -7.2,1 -1.6,0.4 -3.1,1 -4.5,1.8 0.8,0.5 1.7,1 2.6,1.4 1.6,0.7 3.3,1.5 4.2,3 0.2,0.4 0.4,0.8 0.5,1.2 0.8,2.6 0.1,5.7 1.2,8.3 1.1,2.6 3.2,4.9 6.3,5.1 3.7,0.2 5.3,-3.3 6.1,-6.3 0.8,-3 1.7,-7.2 0.6,-10.3 -1.5,-3.7 -6.4,-5 -9.8,-5.2 z"
   id="path49-0" />
	<path
   class="st5_brainstorming-8"
   d="m 404.7,295.9 c -1.5,-5 -4.8,-9.7 -9.5,-11.9 H 395 l -0.2,0.1 c -0.3,0.1 -0.6,0.2 -0.9,0.2 5.5,2.1 9,7.5 10.5,13.1 1.8,7.1 1.2,14.9 1.2,22.2 0,0.2 0.2,0.4 0.4,0.3 0.2,0 0.3,-0.2 0.3,-0.3 0,-7.7 0.7,-16.1 -1.6,-23.7 z"
   id="path50-6" />
</g><g
         id="Small_Boxes_brainstorming-8"
         transform="matrix(0.26458333,0,0,0.26458333,169.84806,367.34729)">
	<polygon
   class="st6_brainstorming-8 targetColor"
   points="166.6,155.5 166.3,172.2 183.5,162.6 183.5,145.7 "
   style="fill:#68e1fd"
   id="polygon50-1" />
	<polygon
   class="st6_brainstorming-8 targetColor"
   points="166.6,155.5 152.1,146.9 152.1,163.9 166.3,172.2 "
   style="fill:#68e1fd"
   id="polygon51" />
	<polygon
   class="st6_brainstorming-8 targetColor"
   points="168.7,137.1 152.1,146.9 166.6,155.5 183.5,145.7 "
   style="fill:#68e1fd"
   id="polygon52" />
	<polygon
   class="st7_brainstorming-8"
   points="166.6,155.5 166.3,172.2 183.5,162.6 183.5,145.7 "
   id="polygon53" />
	<polygon
   class="st8_brainstorming-8"
   points="166.6,155.5 152.1,146.9 152.1,163.9 166.3,172.2 "
   id="polygon54" />
	<polygon
   class="st6_brainstorming-8 targetColor"
   points="168.7,137.1 152.1,146.9 166.6,155.5 183.5,145.7 "
   style="fill:#68e1fd"
   id="polygon55-5" />
	<polygon
   class="st6_brainstorming-8 targetColor"
   points="279.4,152.1 279.2,164.5 292,157.3 292,144.9 "
   style="fill:#68e1fd"
   id="polygon56" />
	<polygon
   class="st6_brainstorming-8 targetColor"
   points="279.4,152.1 268.7,145.8 268.7,158.3 279.2,164.5 "
   style="fill:#68e1fd"
   id="polygon57" />
	<polygon
   class="st6_brainstorming-8 targetColor"
   points="281,138.5 268.7,145.8 279.4,152.1 292,144.9 "
   style="fill:#68e1fd"
   id="polygon58" />
	<polygon
   class="st7_brainstorming-8"
   points="279.4,152.1 279.2,164.5 292,157.3 292,144.9 "
   id="polygon59" />
	<polygon
   class="st8_brainstorming-8"
   points="279.4,152.1 268.7,145.8 268.7,158.3 279.2,164.5 "
   id="polygon60" />
	<polygon
   class="st6_brainstorming-8 targetColor"
   points="281,138.5 268.7,145.8 279.4,152.1 292,144.9 "
   style="fill:#68e1fd"
   id="polygon61" />
	<polygon
   class="st6_brainstorming-8 targetColor"
   points="309.5,117.7 309.4,125.7 317.6,121 317.6,113 "
   style="fill:#68e1fd"
   id="polygon62" />
	<polygon
   class="st6_brainstorming-8 targetColor"
   points="309.5,117.7 302.6,113.6 302.6,121.7 309.4,125.7 "
   style="fill:#68e1fd"
   id="polygon63" />
	<polygon
   class="st6_brainstorming-8 targetColor"
   points="310.5,108.9 302.6,113.6 309.5,117.7 317.6,113 "
   style="fill:#68e1fd"
   id="polygon64" />
	<polygon
   class="st7_brainstorming-8"
   points="309.5,117.7 309.4,125.7 317.6,121 317.6,113 "
   id="polygon65" />
	<polygon
   class="st8_brainstorming-8"
   points="309.5,117.7 302.6,113.6 302.6,121.7 309.4,125.7 "
   id="polygon66" />
	<polygon
   class="st6_brainstorming-8 targetColor"
   points="310.5,108.9 302.6,113.6 309.5,117.7 317.6,113 "
   style="fill:#68e1fd"
   id="polygon67" />
</g><path
         class="st5_brainstorming-8"
         d="M 224.35223,427.59291 228.74431,425 c 0.18521,-0.10584 0.44979,-0.0529 0.58208,0.13229 0.0529,0.0794 0.0794,0.18521 0.0529,0.29104 l -1.50813,7.69938 c -0.0265,0.13229 -0.10583,0.21166 -0.21166,0.29104 l -4.18042,2.32833 c -0.21167,0.10583 -0.44979,0.0529 -0.58208,-0.15875 -0.0529,-0.0794 -0.0529,-0.18521 -0.0529,-0.26458 l 1.29646,-7.43479 c 0.0265,-0.1323 0.10583,-0.23813 0.21167,-0.29105 z"
         id="path76"
         style="stroke-width:0.264583" /></g></g><style
     type="text/css"
     id="style1">
	.st0_files-and-folder-92{fill:#9FBAFF;}
	.st1_files-and-folder-92{fill:url(#SVGID_1_);}
	.st2_files-and-folder-92{fill:url(#SVGID_00000115517214884162514130000015583381908700352929_);}
	.st3_files-and-folder-92{fill:#2E3192;}
	.st4_files-and-folder-92{fill:#F23DB4;}
	.st5_files-and-folder-92{fill:#581B7A;}
	.st6_files-and-folder-92{fill:#FFB9AD;}
	.st7_files-and-folder-92{fill:#FF8C79;}
	.st8_files-and-folder-92{fill:#E0FF4B;}
	.st9_files-and-folder-92{fill:#FFB883;}
	.st10_files-and-folder-92{fill:#EA8E50;}
</style><style
     type="text/css"
     id="style1-3">
	.st0_rocket-launch-1-84{fill:#00275E;}
	.st1_rocket-launch-1-84{fill:#EB773A;}
	.st2_rocket-launch-1-84{fill:#FFAE46;}
	.st3_rocket-launch-1-84{fill:#FAD374;}
	.st4_rocket-launch-1-84{fill:#68E1FD;}
	.st5_rocket-launch-1-84{opacity:0.61;fill:#363636;enable-background:new    ;}
	.st6_rocket-launch-1-84{opacity:0.29;fill:#363636;enable-background:new    ;}
	.st7_rocket-launch-1-84{opacity:0.61;fill:#606060;enable-background:new    ;}
	.st8_rocket-launch-1-84{fill:#FFFFFF;}
	.st9_rocket-launch-1-84{fill:#00AEE1;}
	.st10_rocket-launch-1-84{fill:#8CC63F;}
</style><style
     type="text/css"
     id="style1-7">
	.st0_brainstorming-8{fill:#FECAB5;}
	.st1_brainstorming-8{fill:url(#SVGID_1_);}
	.st2_brainstorming-8{fill:url(#SVGID_00000070088870942748995910000008157697380455896196_);}
	.st3_brainstorming-8{fill:url(#SVGID_00000047041480737490368350000004261058968769754763_);}
	.st4_brainstorming-8{fill:url(#SVGID_00000162343835082320139540000003776312126409395859_);}
	.st5_brainstorming-8{fill:#311F1D;}
	.st6_brainstorming-8{fill:#68E1FD;}
	.st7_brainstorming-8{opacity:0.29;fill:#311F1D;enable-background:new    ;}
	.st8_brainstorming-8{opacity:7.000000e-02;fill:#311F1D;enable-background:new    ;}
	.st9_brainstorming-8{fill:#F78F38;}
	.st10_brainstorming-8{fill:#E86E43;}
	.st11_brainstorming-8{fill:#6B5151;}
	.st12_brainstorming-8{fill:#F9AA43;}
	.st13_brainstorming-8{fill:#FFFFFF;}
	.st14_brainstorming-8{fill:#F5A580;}
	.st15_brainstorming-8{fill:#A0391A;}
</style></svg>
