<?xml version="1.0" encoding="UTF-8" standalone="no"?>
<!-- Created with Inkscape (http://www.inkscape.org/) -->

<svg
   width="138.57742mm"
   height="110.25596mm"
   viewBox="0 0 138.57742 110.25596"
   version="1.1"
   id="svg1"
   xml:space="preserve"
   xmlns:inkscape="http://www.inkscape.org/namespaces/inkscape"
   xmlns:sodipodi="http://sodipodi.sourceforge.net/DTD/sodipodi-0.dtd"
   xmlns:xlink="http://www.w3.org/1999/xlink"
   xmlns="http://www.w3.org/2000/svg"
   xmlns:svg="http://www.w3.org/2000/svg"><sodipodi:namedview
     id="namedview1"
     pagecolor="#ffffff"
     bordercolor="#000000"
     borderopacity="0.25"
     inkscape:showpageshadow="2"
     inkscape:pageopacity="0.0"
     inkscape:pagecheckerboard="0"
     inkscape:deskcolor="#d1d1d1"
     inkscape:document-units="mm"><inkscape:page
       x="0"
       y="-2.0954279e-13"
       width="138.57742"
       height="110.25597"
       id="page2"
       margin="0"
       bleed="0" /></sodipodi:namedview><defs
     id="defs1"><inkscape:path-effect
       effect="bspline"
       id="path-effect69"
       is_visible="true"
       lpeversion="1.3"
       weight="33.333333"
       steps="2"
       helper_size="0"
       apply_no_weight="true"
       apply_with_weight="true"
       only_selected="false"
       uniform="false" /><style
       id="style1-6">.cls-1_mountain-1-28{fill:#ff912e;}.cls-2_mountain-1-28{fill:#cc630d;}.cls-3_mountain-1-28{fill:#fcd5b9;}.cls-4_mountain-1-28{fill:#68e1fd;}.cls-5_mountain-1-28,.cls-6_mountain-1-28{fill:#351b0c;}.cls-5_mountain-1-28{opacity:0.24;}.cls-6_mountain-1-28{opacity:0.4;}.cls-11_mountain-1-28,.cls-12_mountain-1-28,.cls-13_mountain-1-28,.cls-7_mountain-1-28{opacity:0.68;}.cls-7_mountain-1-28{fill:url(#linear-gradient);}.cls-8_mountain-1-28{fill:#bc532a;}.cls-9_mountain-1-28{fill:#2c9135;}.cls-10_mountain-1-28{fill:#156819;}.cls-11_mountain-1-28{fill:url(#linear-gradient-2-mountain-1-28);}.cls-12_mountain-1-28{fill:url(#linear-gradient-3-mountain-1-28);}.cls-13_mountain-1-28{fill:url(#linear-gradient-4-mountain-1-28);}</style><linearGradient
       id="linear-gradient-mountain-1-28"
       x1="51.889999"
       y1="258.79999"
       x2="66.360001"
       y2="249.21001"
       gradientUnits="userSpaceOnUse"><stop
         offset="0"
         stop-color="#ff912e"
         id="stop1-0" /><stop
         offset="1"
         stop-color="#bb652e"
         id="stop2-6" /></linearGradient><linearGradient
       inkscape:collect="always"
       xlink:href="#linear-gradient-mountain-1-28"
       id="linearGradient69"
       x1="251.2"
       y1="363.89999"
       x2="263.07001"
       y2="356.04001"
       gradientTransform="matrix(0.26458333,0,0,0.26458333,3.3820474,436.63392)" /><linearGradient
       inkscape:collect="always"
       xlink:href="#linear-gradient-mountain-1-28"
       id="linearGradient70"
       x1="414.37"
       y1="271.48999"
       x2="426.23999"
       y2="263.63"
       gradientTransform="matrix(0.26458333,0,0,0.26458333,3.3820474,436.63392)" /><linearGradient
       inkscape:collect="always"
       xlink:href="#linear-gradient-mountain-1-28"
       id="linearGradient71"
       x1="276.17001"
       y1="174.74001"
       x2="288.03"
       y2="166.87"
       gradientTransform="matrix(0.26458333,0,0,0.26458333,3.3820474,436.63392)" /></defs><g
     inkscape:label="Layer 1"
     inkscape:groupmode="layer"
     id="layer1"
     transform="translate(6.957013,-442.91032)"><path
       style="fill:#ddff55;fill-opacity:1;stroke-width:0.264583"
       d="m 53.28187,119.74735 c -11.246287,8.04509 -24.050534,14.27874 -26.451299,28.09434 -2.400765,13.8156 5.601889,35.21217 16.13204,44.14159 10.530152,8.92942 23.587112,5.39141 35.549324,6.9078 11.962213,1.51639 22.828975,8.08699 33.316975,6.19148 10.488,-1.89551 20.59662,-12.25684 26.03011,-20.34396 5.4335,-8.08711 6.19165,-13.89956 9.89828,-22.07096 3.70664,-8.1714 10.36147,-18.70121 10.10868,-30.20011 -0.25279,-11.49891 -7.41306,-23.96621 -20.89168,-30.87392 C 123.49567,94.685909 103.69963,93.338093 88.957605,97.592221 74.21558,101.84635 64.528156,111.70225 53.28187,119.74735 Z"
       id="path36"
       inkscape:path-effect="#path-effect69"
       inkscape:original-d="m 54.840343,121.55855 c -12.804762,6.23389 -25.609007,12.46754 -38.413512,18.70131 8.002975,21.39743 16.00563,42.794 24.008444,64.191 13.057487,-3.53816 26.114449,-7.07617 39.171674,-10.61426 10.867196,6.57087 21.733961,13.14146 32.600941,19.7122 10.10902,-10.36175 20.21764,-20.72308 30.32645,-31.08462 0.75818,-5.81269 1.51633,-11.62514 2.27449,-17.43771 6.65511,-10.53023 13.30994,-21.06004 19.96492,-31.59006 -7.16056,-12.46779 -14.32083,-24.93509 -21.48124,-37.402631 -19.79684,-1.347869 -39.59288,-2.695686 -59.389313,-4.043529 -9.687616,9.8561 -19.375042,19.712 -29.062854,29.5683 z"
       sodipodi:nodetypes="ccccccccccc"
       inkscape:export-filename="organize_linkversity.svg"
       inkscape:export-xdpi="96"
       inkscape:export-ydpi="96"
       transform="translate(-33.359103,347.74338)" /><path
       class="cls-1_mountain-1-28"
       d="M 67.689026,539.00386 9.8537557,504.82234 c -1.8520834,-1.03188 -3.4210625,-2.7305 -1.6245417,-3.84175 l 58.041645,-33.45392 c 0.870479,-0.52917 2.193396,-0.89165 3.07975,-0.37835 l 60.708641,35.23456 c 1.85209,1.05833 2.17223,4.05606 0.33073,5.12498 l -55.078309,31.44043 a 7.6887916,7.6887916 0 0 1 -7.622645,0.0556 z"
       id="path37"
       style="stroke-width:0.264583" /><path
       class="cls-2_mountain-1-28"
       d="m 69.24213,509.60865 c 0,0 -18.825104,-1.7145 -16.697854,5.29166 2.12725,7.00617 -13.276792,7.31838 -13.276792,7.31838 l 15.671271,9.26042 c 0,0 9.614958,-5.11175 6.556375,-10.98021 -3.862917,-7.40834 7.252229,-9.92717 7.252229,-9.92717"
       id="path45"
       style="stroke-width:0.264583" /><path
       class="cls-3_mountain-1-28"
       d="m 68.810859,510.40504 c -0.288396,0.52917 -16.877771,-1.62718 -14.750521,5.37898 2.12725,7.00617 -13.276791,7.31838 -13.276791,7.31838 l 15.671271,9.26041 c 0,0 9.614958,-5.11175 6.556374,-10.9802 -3.862916,-7.40834 4.421188,-8.43492 4.421188,-8.43492"
       id="path46"
       style="stroke-width:0.264583" /><path
       class="cls-4_mountain-1-28 targetColor"
       d="m 28.644464,500.98852 c 0.193146,-0.57943 16.49677,-25.44233 17.51277,-26.45833 1.016,-1.016 1.383771,-0.9234 1.661584,-1.56898 0.277812,-0.64558 4.061354,-5.16996 4.524375,-5.72558 0.46302,-0.55563 1.661583,-1.56898 2.116666,-1.66159 0.455084,-0.0926 4.524375,1.75419 5.262563,2.032 0.738187,0.27782 2.492375,3.78619 3.323166,3.8788 0.830792,0.0926 4.431771,0.55298 4.709584,0.92339 0.277812,0.37042 5.908145,11.44588 5.908145,11.44588 l 4.894792,15.51252 c 0,0 1.367896,8.40052 0.497417,9.0461 -0.87048,0.64558 -19.317229,2.30452 -20.618979,1.9394 -1.30175,-0.36513 -16.16075,-1.016 -18.277417,-1.29117 -2.116666,-0.27517 -8.310562,-3.048 -9.233958,-3.60098 -0.923396,-0.55298 -2.280708,-4.47146 -2.280708,-4.47146 z"
       style="fill:#fcd5b9;fill-opacity:1;stroke-width:0.264583"
       id="path47" /><path
       class="cls-5_mountain-1-28"
       d="m 47.832047,472.96121 0.508,3.07711 -17.404292,29.42166 c 0,0 -0.989541,-0.70644 -2.278062,-4.47146 l 9.8425,-15.1765 6.532562,-9.75518 a 10.281708,10.281708 0 0 1 2.799292,-3.09563 z"
       id="path48"
       style="stroke-width:0.264583" /><path
       class="cls-5_mountain-1-28"
       d="m 64.683359,481.83534 -9.458854,2.68816 -2.696104,11.90625 -6.019271,13.06248 11.938,0.8599 c 0,0 16.094604,-0.31486 20.624271,-1.9394 z"
       id="path49"
       style="stroke-width:0.264583" /><path
       class="cls-6_mountain-1-28"
       d="m 67.760463,472.40823 c 0,0 -3.077104,8.04598 -3.077104,9.42711 0,1.38112 3.077104,11.3612 3.077104,11.3612 l 11.292417,15.21619 c 0,0 0.79375,-0.0185 -0.497417,-9.0461 l -1.778,-6.26269 -3.116791,-9.26042 z"
       id="path50"
       style="stroke-width:0.264583" /><polygon
       class="cls-6_mountain-1-28"
       points="154.04,175.68 169.87,148.93 177.2,175.68 195.94,181.03 169.87,181.24 "
       id="polygon50"
       transform="matrix(0.26458333,0,0,0.26458333,3.3820474,436.63392)" /><path
       class="cls-4_mountain-1-28 targetColor"
       d="m 77.896651,490.7174 c 0,0 2.2225,5.82083 2.2225,6.80773 0,0.98689 -2.2225,8.20208 -2.2225,8.20208 l -8.15975,10.98815 c 0,0 -1.889125,-2.13255 -2.304521,-3.76767 l 3.947583,-7.28398 2.251604,-6.67808 z"
       style="fill:#68e1fd;stroke-width:0.264583"
       id="path51" /><path
       class="cls-4_mountain-1-28 targetColor"
       d="m 106.14357,511.35754 c -0.14023,-0.41804 -11.906253,-18.37266 -12.64444,-19.10556 -0.738188,-0.73289 -1.000125,-0.66675 -1.201209,-1.13506 -0.201083,-0.46831 -2.926291,-3.73327 -3.267604,-4.13279 -0.341312,-0.39952 -1.198562,-1.13242 -1.531937,-1.19856 -0.333375,-0.0661 -3.267604,1.2647 -3.802063,1.46579 -0.534458,0.20108 -1.799166,2.73314 -2.399771,2.79929 -0.600604,0.0661 -3.198812,0.39952 -3.399895,0.66675 -0.201084,0.26723 -4.265084,8.26823 -4.265084,8.26823 l -3.534833,11.20246 c 0,0 -0.986896,6.06689 -0.359833,6.53256 0.627062,0.46566 13.959416,1.66687 14.893395,1.39964 0.93398,-0.26723 11.668125,-0.73289 13.200063,-0.93133 1.531937,-0.19844 6.000751,-2.20133 6.667501,-2.60085 0.66675,-0.39952 1.64571,-3.23057 1.64571,-3.23057 z"
       style="fill:#fcd5b9;fill-opacity:1;stroke-width:0.264583"
       id="path52" /><path
       class="cls-5_mountain-1-28"
       d="m 92.297921,491.11692 -0.367771,2.2225 12.56771,21.24604 c 0,0 0.71702,-0.51065 1.64571,-3.22792 l -7.106711,-10.95904 -4.728104,-7.04321 a 7.4083332,7.4083332 0 0 0 -2.010834,-2.23837 z"
       id="path53"
       style="stroke-width:0.264583" /><path
       class="cls-5_mountain-1-28"
       d="m 80.111213,497.52513 6.831542,1.94733 1.952625,8.59896 4.355041,9.43504 -8.620125,0.61913 c 0,0 -11.620499,-0.2249 -14.893395,-1.39965 z"
       id="path54"
       style="stroke-width:0.264583" /><path
       class="cls-5_mountain-1-28"
       d="m 77.896651,490.7174 c 0,0 2.2225,5.82083 2.2225,6.80773 0,0.98689 -2.2225,8.20208 -2.2225,8.20208 l -8.15975,10.98815 c 0,0 -1.889125,-2.13255 -2.304521,-3.76767 l 3.947583,-7.28398 2.251604,-6.67808 z"
       id="path55"
       style="stroke-width:0.264583" /><polygon
       class="cls-6_mountain-1-28"
       points="346.1,233.64 334.67,214.32 329.38,233.64 315.85,237.5 334.67,237.65 "
       id="polygon55"
       transform="matrix(0.26458333,0,0,0.26458333,3.3820474,436.63392)" /><path
       class="cls-7_mountain-1-28"
       d="m 23.088214,502.49929 -1.084792,-0.79375 -6.744229,2.90513 c 0.706438,0.35983 1.730375,0.9816 2.719917,1.55839 1.955271,-1.00806 3.299354,-2.41829 5.109104,-3.66977 z"
       id="path56"
       style="stroke-width:0.264583" /><rect
       class="cls-8_mountain-1-28"
       x="22.003422"
       y="494.59885"
       width="1.2250209"
       height="8.1253538"
       rx="0.35983333"
       id="rect56"
       style="stroke-width:0.264583" /><path
       class="cls-9_mountain-1-28"
       d="m 25.641443,496.26042 c -0.280458,-1.22502 -1.537229,-6.62781 -3.762375,-5.04031 -1.140354,0.81491 -1.4605,2.08491 -1.918229,3.32846 a 9.9324582,9.9324582 0 0 0 -0.703792,3.21997 c -0.0344,2.24896 2.251604,2.52413 4.0005,2.51355 1.010708,0 2.450042,-0.60061 2.685521,-1.69334 0.142875,-0.66146 -0.100542,-1.44198 -0.240771,-2.08756 z"
       id="path57"
       style="stroke-width:0.264583" /><path
       class="cls-10_mountain-1-28"
       d="m 25.749922,496.50119 c -0.01852,-0.082 -0.03704,-0.1614 -0.05292,-0.24077 -0.264583,-1.08479 -1.262062,-5.43454 -3.032125,-5.32606 0.529167,2.29129 1.30175,4.71487 0.886355,7.06173 a 5.3816249,5.3816249 0 0 1 -0.93398,2.27277 c 0.232834,0 0.465667,0.0159 0.690563,0.0132 1.008062,0 2.447396,-0.60061 2.682875,-1.69598 0.145521,-0.65882 -0.100542,-1.43934 -0.240771,-2.08492 z"
       id="path58"
       style="stroke-width:0.264583" /><path
       class="cls-11_mountain-1-28"
       d="m 74.748109,530.77796 -0.889,-0.64294 -5.532437,2.38125 c 0.579437,0.29369 1.418166,0.79375 2.230437,1.27794 1.616604,-0.82815 2.706688,-1.99231 4.191,-3.01625 z"
       id="path59"
       style="fill:url(#linearGradient69);stroke-width:0.264583" /><rect
       class="cls-8_mountain-1-28"
       x="73.859108"
       y="524.29565"
       width="1.0054166"
       height="6.664854"
       rx="0.35983333"
       id="rect59"
       style="stroke-width:0.264583" /><path
       class="cls-9_mountain-1-28"
       d="m 76.843609,525.66092 c -0.232833,-1.00806 -1.262063,-5.43983 -3.087687,-4.13544 -0.93398,0.66675 -1.198563,1.70921 -1.571625,2.7305 a 8.1676874,8.1676874 0 0 0 -0.582084,2.64583 c -0.0291,1.85209 1.852084,2.06905 3.280833,2.06111 0.828146,0 2.008188,-0.49213 2.201334,-1.38906 0.119062,-0.5424 -0.08202,-1.18269 -0.195792,-1.71186 -0.01587,-0.0635 -0.0291,-0.13758 -0.04498,-0.20108 z"
       id="path60"
       style="stroke-width:0.264583" /><path
       class="cls-10_mountain-1-28"
       d="m 76.936213,525.85406 c -0.01323,-0.0635 -0.0291,-0.12964 -0.04233,-0.19579 -0.206375,-0.889 -1.034521,-4.45558 -2.487083,-4.36827 0.43127,1.88119 1.058333,3.86821 0.727604,5.79173 a 4.4079583,4.4079583 0 0 1 -0.767292,1.85208 c 0.193146,0 0.383646,0 0.566208,0 0.828146,0 2.008188,-0.49212 2.201334,-1.3917 0.111125,-0.51594 -0.08731,-1.15623 -0.198438,-1.68805 z"
       id="path61"
       style="stroke-width:0.264583" /><path
       class="cls-12_mountain-1-28"
       d="m 117.92017,506.32517 -0.889,-0.635 -5.53244,2.38125 c 0.57944,0.29633 1.41817,0.80698 2.23044,1.28058 1.60602,-0.83873 2.70669,-2.00025 4.191,-3.02683 z"
       id="path62"
       style="fill:url(#linearGradient70);stroke-width:0.264583" /><rect
       class="cls-8_mountain-1-28"
       x="117.03117"
       y="499.84552"
       width="1.0054166"
       height="6.664854"
       rx="0.35983333"
       id="rect62"
       style="stroke-width:0.264583" /><path
       class="cls-9_mountain-1-28"
       d="m 120.01567,501.20813 c -0.23283,-1.00542 -1.26206,-5.43719 -3.08769,-4.13544 -0.93398,0.6694 -1.19856,1.71185 -1.57162,2.7305 a 8.2020832,8.2020832 0 0 0 -0.58208,2.64583 c -0.0291,1.85209 1.85208,2.07169 3.28083,2.06375 0.82814,0 2.00819,-0.49212 2.20133,-1.39171 0.11906,-0.52916 -0.082,-1.18004 -0.19579,-1.71185 -0.0159,-0.0688 -0.0291,-0.13494 -0.045,-0.20108 z"
       id="path63"
       style="stroke-width:0.264583" /><path
       class="cls-10_mountain-1-28"
       d="m 120.10298,501.40392 c 0,-0.0662 -0.0291,-0.12965 -0.0423,-0.19579 -0.20637,-0.889 -1.03452,-4.45823 -2.48708,-4.37092 0.43127,1.88119 1.05833,3.86821 0.7276,5.79438 a 4.3841458,4.3841458 0 0 1 -0.76729,1.85208 c 0.19315,0 0.38365,0 0.56621,0 0.82814,0 2.00819,-0.49213 2.20133,-1.39171 0.11642,-0.51858 -0.082,-1.15623 -0.19844,-1.68804 z"
       id="path64"
       style="stroke-width:0.264583" /><path
       class="cls-13_mountain-1-28"
       d="m 81.352109,480.72673 -0.889,-0.64294 -5.529792,2.38125 c 0.576792,0.29634 1.418167,0.79375 2.230438,1.28059 1.603375,-0.83079 2.704041,-1.99231 4.188354,-3.0189 z"
       id="path65"
       style="fill:url(#linearGradient71);stroke-width:0.264583" /><rect
       class="cls-8_mountain-1-28"
       x="80.463104"
       y="474.2471"
       width="1.0054166"
       height="6.664854"
       rx="0.35983333"
       id="rect65"
       style="stroke-width:0.264583" /><path
       class="cls-9_mountain-1-28"
       d="m 83.447609,475.60969 c -0.230188,-1.00542 -1.259417,-5.43719 -3.085042,-4.13544 -0.936625,0.6694 -1.201208,1.71186 -1.574271,2.7305 a 8.2020832,8.2020832 0 0 0 -0.582083,2.64584 c -0.0291,1.85208 1.852083,2.06904 3.283479,2.06375 0.8255,0 2.008188,-0.49213 2.201334,-1.39171 0.116416,-0.5424 -0.08202,-1.18004 -0.198438,-1.71186 -0.01323,-0.0714 -0.0291,-0.13493 -0.04498,-0.20108 z"
       id="path66"
       style="stroke-width:0.264583" /><path
       class="cls-10_mountain-1-28"
       d="m 83.534921,475.80548 c -0.01323,-0.0661 -0.0291,-0.12964 -0.04233,-0.19579 -0.206375,-0.889 -1.034521,-4.45823 -2.487083,-4.37092 0.431271,1.88119 1.058333,3.86821 0.727604,5.79438 a 4.3497499,4.3497499 0 0 1 -0.767292,1.85208 c 0.193146,0 0.383646,0.0132 0.566209,0.0132 0.828145,0 2.008187,-0.49212 2.201333,-1.39171 0.116417,-0.53181 -0.08202,-1.16946 -0.198438,-1.70127 z"
       id="path67"
       style="stroke-width:0.264583" /></g><style
     type="text/css"
     id="style1">
	.st0_files-and-folder-92{fill:#9FBAFF;}
	.st1_files-and-folder-92{fill:url(#SVGID_1_);}
	.st2_files-and-folder-92{fill:url(#SVGID_00000115517214884162514130000015583381908700352929_);}
	.st3_files-and-folder-92{fill:#2E3192;}
	.st4_files-and-folder-92{fill:#F23DB4;}
	.st5_files-and-folder-92{fill:#581B7A;}
	.st6_files-and-folder-92{fill:#FFB9AD;}
	.st7_files-and-folder-92{fill:#FF8C79;}
	.st8_files-and-folder-92{fill:#E0FF4B;}
	.st9_files-and-folder-92{fill:#FFB883;}
	.st10_files-and-folder-92{fill:#EA8E50;}
</style><style
     type="text/css"
     id="style1-3">
	.st0_rocket-launch-1-84{fill:#00275E;}
	.st1_rocket-launch-1-84{fill:#EB773A;}
	.st2_rocket-launch-1-84{fill:#FFAE46;}
	.st3_rocket-launch-1-84{fill:#FAD374;}
	.st4_rocket-launch-1-84{fill:#68E1FD;}
	.st5_rocket-launch-1-84{opacity:0.61;fill:#363636;enable-background:new    ;}
	.st6_rocket-launch-1-84{opacity:0.29;fill:#363636;enable-background:new    ;}
	.st7_rocket-launch-1-84{opacity:0.61;fill:#606060;enable-background:new    ;}
	.st8_rocket-launch-1-84{fill:#FFFFFF;}
	.st9_rocket-launch-1-84{fill:#00AEE1;}
	.st10_rocket-launch-1-84{fill:#8CC63F;}
</style></svg>
