<?xml version="1.0" encoding="UTF-8" standalone="no"?>
<!-- Created with Inkscape (http://www.inkscape.org/) -->

<svg
   width="138.41898mm"
   height="110.25598mm"
   viewBox="0 0 138.41898 110.25598"
   version="1.1"
   id="svg1"
   xml:space="preserve"
   xmlns:inkscape="http://www.inkscape.org/namespaces/inkscape"
   xmlns:sodipodi="http://sodipodi.sourceforge.net/DTD/sodipodi-0.dtd"
   xmlns="http://www.w3.org/2000/svg"
   xmlns:svg="http://www.w3.org/2000/svg"><sodipodi:namedview
     id="namedview1"
     pagecolor="#ffffff"
     bordercolor="#000000"
     borderopacity="0.25"
     inkscape:showpageshadow="2"
     inkscape:pageopacity="0.0"
     inkscape:pagecheckerboard="0"
     inkscape:deskcolor="#d1d1d1"
     inkscape:document-units="mm"><inkscape:page
       x="0"
       y="0"
       width="138.41898"
       height="110.25598"
       id="page2"
       margin="0"
       bleed="0" /></sodipodi:namedview><defs
     id="defs1"><inkscape:path-effect
       effect="bspline"
       id="path-effect1"
       is_visible="true"
       lpeversion="1.3"
       weight="33.333333"
       steps="2"
       helper_size="0"
       apply_no_weight="true"
       apply_with_weight="true"
       only_selected="false"
       uniform="false" /></defs><g
     inkscape:label="Layer 1"
     inkscape:groupmode="layer"
     id="layer1"
     transform="translate(-26.402089,-95.16697)"><path
       style="fill:#ddff55;fill-opacity:1;stroke-width:0.264583"
       d="m 53.28187,119.74735 c -11.246287,8.04509 -24.050534,14.27874 -26.451299,28.09434 -2.400765,13.8156 5.601889,35.21217 16.13204,44.14159 10.530152,8.92942 23.587112,5.39141 35.549324,6.9078 11.962213,1.51639 22.828975,8.08699 33.316975,6.19148 10.488,-1.89551 20.59662,-12.25684 26.03011,-20.34396 5.4335,-8.08711 6.19165,-13.89956 9.89828,-22.07096 3.70664,-8.1714 10.36147,-18.70121 10.10868,-30.20011 -0.25279,-11.49891 -7.41306,-23.96621 -20.89168,-30.87392 C 123.49567,94.685909 103.69963,93.338093 88.957605,97.592221 74.21558,101.84635 64.528156,111.70225 53.28187,119.74735 Z"
       id="path1"
       inkscape:path-effect="#path-effect1"
       inkscape:original-d="m 54.840343,121.55855 c -12.804762,6.23389 -25.609007,12.46754 -38.413512,18.70131 8.002975,21.39743 16.00563,42.794 24.008444,64.191 13.057487,-3.53816 26.114449,-7.07617 39.171674,-10.61426 10.867196,6.57087 21.733961,13.14146 32.600941,19.7122 10.10902,-10.36175 20.21764,-20.72308 30.32645,-31.08462 0.75818,-5.81269 1.51633,-11.62514 2.27449,-17.43771 6.65511,-10.53023 13.30994,-21.06004 19.96492,-31.59006 -7.16056,-12.46779 -14.32083,-24.93509 -21.48124,-37.402631 -19.79684,-1.347869 -39.59288,-2.695686 -59.389313,-4.043529 -9.687616,9.8561 -19.375042,19.712 -29.062854,29.5683 z"
       sodipodi:nodetypes="ccccccccccc"
       inkscape:export-filename="organize_linkversity.svg"
       inkscape:export-xdpi="96"
       inkscape:export-ydpi="96" /><path
       id="Base_files-and-folder-92"
       class="st0_files-and-folder-92"
       d="m 46.252931,161.3281 52.943125,30.95625 c 1.957914,1.1377 4.418544,1.11125 6.350004,-0.0794 l 58.31416,-35.77167 c 0.9525,-0.58208 1.24354,-1.82562 0.66146,-2.75166 -0.18521,-0.3175 -0.44979,-0.55563 -0.79375,-0.74084 l -55.43021,-28.89249 c -0.60854,-0.3175 -1.32291,-0.29105 -1.905,0.0264 L 46.27939,157.8356 c -0.978959,0.55562 -1.296459,1.7727 -0.767292,2.75166 0.185208,0.29104 0.423333,0.55563 0.740833,0.74084 z"
       style="stroke-width:0.264583"
       inkscape:export-filename="organize_linkversity.svg"
       inkscape:export-xdpi="96"
       inkscape:export-ydpi="96" /><g
       id="Shadow_files-and-folder-92"
       transform="matrix(0.26458333,0,0,0.26458333,38.368348,80.815389)">
	
		<linearGradient
   id="SVGID_1_-files-and-folder-92"
   gradientUnits="userSpaceOnUse"
   x1="206.1548"
   y1="1738.2729"
   x2="164.5448"
   y2="1805.6229"
   gradientTransform="translate(0,-1443.47)">
		<stop
   offset="0"
   style="stop-color:#7A7FF1"
   id="stop1" />
		<stop
   offset="1"
   style="stop-color:#9FBAFF"
   id="stop2" />
	</linearGradient>
	<path
   class="st1_files-and-folder-92"
   d="m 145.5,274.1 -83.9,48.8 c 0,0 129.2,75.4 153,89.4 L 287,369.8"
   id="path2" />
	
		<linearGradient
   id="SVGID_00000059297964108195087090000008475713460669773499_-files-and-folder-92"
   gradientUnits="userSpaceOnUse"
   x1="308.81409"
   y1="1770.6326"
   x2="294.41409"
   y2="1793.9325"
   gradientTransform="translate(0,-1443.47)">
		<stop
   offset="0"
   style="stop-color:#7A7FF1"
   id="stop3" />
		<stop
   offset="1"
   style="stop-color:#9FBAFF"
   id="stop4" />
	</linearGradient>
	<polygon
   style="fill:url(#SVGID_00000059297964108195087090000008475713460669773499_)"
   points="325.7,343.9 299.7,362.1 273.1,340.9 293.6,323.6 "
   id="polygon4" />
</g><g
       id="Clip_files-and-folder-92"
       transform="matrix(0.26458333,0,0,0.26458333,38.368348,80.815389)">
	<path
   class="st3_files-and-folder-92"
   d="m 124,317.2 c -8.6,-5 -17.1,-10.2 -25.7,-15.1 -3.5,-2.2 -7.5,-3.6 -11.7,-3.9 -5.3,-0.2 -12.1,3.6 -8.8,9.6 1.6,3 4.9,5 7.6,6.7 5.6,3.5 11.4,6.9 17,10.4 6.8,4.2 15.5,11.3 24.1,10.3 5,-0.6 8.3,-4.5 4.5,-8.7 -2,-2.2 -5.1,-3.5 -7.6,-5 l -30,-17 c -0.7,-0.4 -1.7,-0.2 -2.1,0.6 -0.4,0.8 -0.2,1.7 0.6,2.1 v 0 l 25.2,14.3 c 2.7,1.5 5.5,3 8.1,4.6 0.8,0.5 2.4,1.1 2.9,1.9 2.9,4.5 -3.9,4.3 -6.3,3.7 -4.7,-1.1 -9,-4 -13.1,-6.6 -4.9,-3 -9.8,-6 -14.7,-9 -3,-1.8 -19,-9 -10.5,-14.4 3.8,-2.5 10.7,1.6 14.2,3.7 8.3,4.8 16.5,9.7 24.8,14.5 0.7,0.5 1.7,0.3 2.2,-0.4 0.5,-0.7 0.3,-1.7 -0.4,-2.2 -0.2,0 -0.3,0 -0.3,-0.1 z"
   id="path4" />
</g><polygon
       class="st6_files-and-folder-92"
       points="232.8,130.8 340.5,193 223.1,353.9 115.4,291.7 "
       id="polygon6"
       transform="matrix(0.26458333,0,0,0.26458333,38.368348,80.815389)" /><polygon
       class="st7_files-and-folder-92"
       points="115.4,200.4 115.4,224.4 115.4,291.7 232.8,223.1 232.8,130.8 "
       id="polygon7"
       transform="matrix(0.26458333,0,0,0.26458333,38.368348,80.815389)" /><path
       class="st7_files-and-folder-92"
       d="m 82.659597,125.66226 -3.545416,-2.03729 c -0.132292,-0.0794 -10.239375,6.21771 -10.239375,6.21771 v 4.78896"
       id="path7"
       style="stroke-width:0.264583" /><path
       class="st3_files-and-folder-92"
       d="m 105.67835,121.16435 -1.08479,-0.76729 v 0 c -0.37042,-0.29105 -0.87313,-0.3175 -1.29646,-0.0794 L 74.801473,137.1981 c -0.529167,0.3175 -0.846667,0.87312 -0.846667,1.48166 v 21.96042 c 0,0.21167 0.105833,0.42333 0.264583,0.52917 v 0 l 0.105834,0.0529 v 0 l 1.11125,0.76729 0.502708,-0.9525 -0.370417,-0.10583 29.474586,-17.19792 v -22.43666 0 z"
       id="path8"
       style="stroke-width:0.264583" /><path
       class="st0_files-and-folder-92"
       d="m 82.342097,139.9233 c 2.2225,-1.08479 5.185834,-0.52916 6.614584,1.5875 0.608541,0.89959 0.9525,2.06375 1.878541,2.61938 0.767292,0.42333 1.693334,0.42333 2.487084,0.0265 2.38125,-1.05834 3.201458,-3.75709 4.101041,-5.97959 1.031875,-2.48708 2.38125,-5.55624 4.841873,-6.90562 1.24354,-0.58208 2.54,-1.08479 3.83646,-1.50812 v -7.69938 c 0,-0.635 -0.52917,-1.13771 -1.16417,-1.13771 -0.21166,0 -0.39687,0.0529 -0.58208,0.15875 l -28.522082,16.88042 c -0.529167,0.3175 -0.846667,0.87312 -0.846667,1.48166 v 14.07584 c 0.582083,-2.72521 1.481667,-5.3975 2.672292,-7.91104 1.031874,-2.2225 2.434166,-4.60375 4.683124,-5.68855 z"
       id="path9"
       style="stroke-width:0.264583" /><path
       class="st3_files-and-folder-92"
       d="m 106.10168,144.44768 v -14.71083 c -1.29646,0.42333 -2.59292,0.92604 -3.83646,1.50812 -2.460623,1.37584 -3.836456,4.41854 -4.841873,6.90563 -0.899583,2.2225 -1.719791,4.92125 -4.101041,5.97958 -0.79375,0.39687 -1.719792,0.37042 -2.487084,-0.0265 -0.926041,-0.55562 -1.27,-1.71979 -1.878541,-2.61937 -1.42875,-2.09021 -4.392084,-2.6723 -6.614584,-1.5875 -2.2225,1.08479 -3.65125,3.46604 -4.656666,5.66208 -1.190625,2.54 -2.090208,5.18583 -2.672292,7.91104 v 7.88458 c 0,0.39688 0.3175,0.71438 0.714375,0.71438 0,0 0,0 0,0 0.132292,0 0.238125,-0.0265 0.370417,-0.10583 z"
       id="path10"
       style="stroke-width:0.264583" /><ellipse
       transform="rotate(-75.498206)"
       class="st8_files-and-folder-92"
       cx="-108.86412"
       cy="123.92072"
       rx="2.9102969"
       ry="1.7461782"
       id="ellipse10"
       style="stroke-width:0.264572" /><path
       class="st3_files-and-folder-92"
       d="m 108.85335,126.0856 -28.495628,16.88041 c -0.529166,0.3175 -0.846666,0.87313 -0.846666,1.48167 v 21.96042 c 0,0.21166 0.105833,0.39687 0.264583,0.52916 v 0 l 0.105833,0.0529 v 0 l 1.11125,0.76729 0.502709,-0.9525 -0.370417,-0.10583 29.501046,-17.22438 v -22.38375 c 0,-0.635 -0.52917,-1.1377 -1.16417,-1.1377 -0.23813,-0.0265 -0.42333,0.0264 -0.60854,0.13229 z"
       id="path11"
       style="stroke-width:0.264583" /><path
       class="st0_files-and-folder-92"
       d="m 87.871889,145.69122 c 2.2225,-1.08479 5.185833,-0.52917 6.614583,1.5875 0.608542,0.89958 0.9525,2.03729 1.878542,2.61938 0.767292,0.42333 1.693333,0.42333 2.487083,0.0265 2.381253,-1.08479 3.201463,-3.75708 4.101043,-5.97958 1.00542,-2.48708 2.38125,-5.55625 4.84187,-6.90562 1.24355,-0.58209 2.51355,-1.0848 3.83646,-1.53459 v -7.67291 c 0,-0.635 -0.50271,-1.13771 -1.13771,-1.13771 0,0 0,0 0,0 -0.21166,0 -0.39687,0.0529 -0.58208,0.15875 L 81.416056,143.7333 c -0.529167,0.3175 -0.846667,0.87313 -0.846667,1.45521 v 14.07584 c 0.582083,-2.72521 1.481667,-5.3975 2.645833,-7.9375 1.005417,-2.16959 2.434167,-4.55084 4.656667,-5.63563 z"
       id="path12"
       style="stroke-width:0.264583" /><path
       class="st3_files-and-folder-92"
       d="m 111.63147,150.2156 v -14.7373 c -1.29646,0.42334 -2.59291,0.92605 -3.83646,1.50813 -2.46062,1.37583 -3.83645,4.41854 -4.84187,6.90562 -0.89958,2.2225 -1.71979,4.92125 -4.101043,5.97959 -0.79375,0.39687 -1.719791,0.37041 -2.487083,-0.0265 -0.926042,-0.55563 -1.27,-1.71979 -1.878542,-2.61938 -1.42875,-2.0902 -4.392083,-2.67229 -6.614583,-1.5875 -2.2225,1.0848 -3.65125,3.4925 -4.656667,5.66209 -1.190625,2.54 -2.090208,5.18583 -2.672291,7.9375 v 7.85812 c 0,0.39688 0.3175,0.71438 0.714375,0.71438 0.132291,0 0.238125,-0.0265 0.370416,-0.10584 z"
       id="path13"
       style="stroke-width:0.264583" /><ellipse
       transform="rotate(-75.498206)"
       class="st8_files-and-folder-92"
       cx="-113.0451"
       cy="130.72427"
       rx="2.9102969"
       ry="1.7461782"
       id="ellipse13"
       style="stroke-width:0.264572" /><path
       class="st3_files-and-folder-92"
       d="m 118.32543,128.6256 -28.495624,16.88041 c -0.529167,0.3175 -0.846667,0.87313 -0.846667,1.48167 v 21.96042 c 0,0.21166 0.105833,0.39687 0.264583,0.52916 v 0 l 0.105834,0.0529 v 0 l 1.11125,0.76729 0.502708,-0.9525 -0.370417,-0.10583 29.501043,-17.22438 v -22.4102 c 0,-0.635 -0.52917,-1.13771 -1.16417,-1.13771 -0.23812,0 -0.42333,0.0529 -0.60854,0.15875 z"
       id="path14"
       style="stroke-width:0.264583" /><path
       class="st0_files-and-folder-92"
       d="m 97.343972,148.23122 c 2.2225,-1.08479 5.185838,-0.52917 6.614588,1.5875 0.60854,0.89958 0.9525,2.06375 1.87854,2.61938 0.76729,0.42333 1.69333,0.42333 2.48708,0.0265 2.38125,-1.05833 3.20146,-3.75708 4.10104,-5.97958 1.00542,-2.48708 2.38125,-5.55625 4.84188,-6.90562 1.24354,-0.58209 2.51354,-1.0848 3.83646,-1.50813 v -7.69937 c 0,-0.635 -0.50271,-1.13771 -1.13771,-1.13771 -0.21167,0 -0.42334,0.0529 -0.58209,0.15875 L 90.888139,146.2733 c -0.529167,0.3175 -0.846667,0.87313 -0.846667,1.45521 v 14.10229 c 0.582084,-2.7252 1.481667,-5.3975 2.672292,-7.9375 0.978958,-2.19604 2.407708,-4.55083 4.630208,-5.66208 z"
       id="path15"
       style="stroke-width:0.264583" /><path
       class="st3_files-and-folder-92"
       d="m 121.10356,152.78205 v -14.73729 c -1.29646,0.42334 -2.59292,0.92604 -3.83646,1.50813 -2.46063,1.37583 -3.83646,4.41854 -4.84188,6.90562 -0.89958,2.2225 -1.71979,4.92125 -4.10104,5.97959 -0.79375,0.39687 -1.71979,0.37041 -2.48708,-0.0265 -0.92604,-0.55563 -1.27,-1.71979 -1.87854,-2.61938 -1.42875,-2.09021 -4.392088,-2.67229 -6.614588,-1.5875 -2.2225,1.08479 -3.65125,3.46604 -4.656666,5.66209 -1.190625,2.54 -2.090209,5.21229 -2.672292,7.9375 v 7.85812 c 0,0.39688 0.3175,0.71438 0.714375,0.71438 0.132292,0 0.238125,-0.0265 0.343958,-0.10584 z"
       id="path16"
       style="stroke-width:0.264583" /><ellipse
       transform="rotate(-75.546885)"
       class="st8_files-and-folder-92"
       cx="-113.09317"
       cy="140.5092"
       rx="2.9370201"
       ry="1.7463362"
       id="ellipse16"
       style="stroke-width:0.264596" /><path
       class="st7_files-and-folder-92"
       d="m 97.952514,149.97747 c -0.343958,0.21167 -0.555625,0.55563 -0.555625,0.9525 v 23.52146 l 31.088541,-18.15042 v -24.42104 z"
       id="path17"
       style="stroke-width:0.264583" /><g
       id="Cupboard_files-and-folder-92"
       transform="matrix(0.26458333,0,0,0.26458333,38.368348,80.815389)">
	<polyline
   class="st9_files-and-folder-92"
   points="360.5,279 360.5,323.9 325.7,343.9 297.4,327.1 297.4,285.5 	"
   id="polyline32" />
	<polygon
   class="st10_files-and-folder-92"
   points="325.7,343.9 325.7,299.7 297.4,287.2 297.4,327.1 "
   id="polygon32" />
	<polyline
   class="st10_files-and-folder-92"
   points="297.4,283.1 297.4,287.2 300.1,288 301.9,285.2 	"
   id="polyline33" />
	<path
   class="st10_files-and-folder-92"
   d="m 331.9,266.1 28.6,16.9 -35.8,20.6 c -1,0.6 -27.3,-16.6 -27.3,-16.6 z"
   id="path33" />
	<polyline
   class="st10_files-and-folder-92"
   points="360.5,283.1 360.5,279 355.3,276.5 355.9,283.6 	"
   id="polyline34" />
	<path
   class="st9_files-and-folder-92"
   d="m 331.9,262.1 28.6,16.9 -35.8,20.6 c -1,0.6 -27.3,-16.6 -27.3,-16.6 z"
   id="path34" />
	<polygon
   class="st10_files-and-folder-92"
   points="355.5,291.7 355.5,301 329.4,315.8 329.4,306.7 "
   id="polygon34" />
	<polygon
   class="st10_files-and-folder-92"
   points="355.8,305.5 355.8,314.8 329.8,329.7 329.8,320.6 "
   id="polygon35" />
	
		<ellipse
   transform="matrix(0.09497701,-0.9955,0.9955,0.09497701,9.0824,616.5461)"
   class="st9_files-and-folder-92"
   cx="343.60001"
   cy="303.29999"
   rx="1.6"
   ry="1.2"
   id="ellipse35" />
	
		<ellipse
   transform="matrix(0.09497701,-0.9955,0.9955,0.09497701,-3.2751,629.7266)"
   class="st9_files-and-folder-92"
   cx="344.70001"
   cy="316.70001"
   rx="1.6"
   ry="1.2"
   id="ellipse36" />
</g><g
       id="Archive_files-and-folder-92"
       transform="matrix(0.26458333,0,0,0.26458333,38.368348,80.815389)">
	<polyline
   class="st4_files-and-folder-92"
   points="305.4,304.3 257.9,277.4 240.8,288.1 262.2,309.8 289.8,322.2 	"
   id="polyline36" />
	<polygon
   class="st5_files-and-folder-92"
   points="305.4,358.7 305.4,313.9 305.4,304.3 286.6,315 240.8,288.1 240.8,295 240.8,298.3 240.8,344.4 286.6,369.9 286.6,369.6 287,369.9 "
   id="polygon36" />
	<polygon
   class="st4_files-and-folder-92"
   points="289.9,319.1 289.9,342.6 303.1,334.9 303.1,311.6 "
   id="polygon37" />
	<polygon
   class="st5_files-and-folder-92"
   points="286.6,315 286.6,369.9 240.8,344.4 240.8,288.1 "
   id="polygon38" />
	<ellipse
   transform="matrix(0.2272,-0.9739,0.9739,0.2272,-109.8258,559.343)"
   class="st4_files-and-folder-92"
   cx="297.5"
   cy="348.89999"
   rx="4.4000001"
   ry="3"
   id="ellipse38" />
</g><g
       id="Plant_files-and-folder-92"
       transform="matrix(0.26458333,0,0,0.26458333,38.368348,80.815389)">
	<path
   class="st4_files-and-folder-92"
   d="m 324.4,258.3 c 0,0 -4.7,21.4 -4.3,22.6 0.9,3.1 13.9,5 17.7,0 l -4.7,-22.6 z"
   id="path38" />
	<ellipse
   class="st5_files-and-folder-92"
   cx="328.60001"
   cy="258.5"
   rx="4.5"
   ry="2.5"
   id="ellipse39" />
	<path
   class="st8_files-and-folder-92"
   d="m 337.7,214.3 c 0,0 -8.7,-4.7 -14,5 -5.3,9.7 2.5,14.2 11.1,14.6 8.6,0.4 10.2,-16.3 2.9,-19.6 z"
   id="path39" />
	<path
   class="st3_files-and-folder-92"
   d="m 336,214.3 c -7.1,13.2 -8.2,28.4 -8.8,43.1 0,0.8 1.2,0.8 1.2,0 0.6,-14.5 1.6,-29.5 8.7,-42.5 0.3,-0.7 -0.7,-1.3 -1.1,-0.6 z"
   id="path40" />
	<path
   class="st8_files-and-folder-92"
   d="m 341.1,238.9 c 0,0 -12,-0.5 -10.6,7.5 1.4,8 11.6,6.4 13.2,2.1 1.6,-4.3 -2.6,-9.6 -2.6,-9.6 z"
   id="path41" />
	<path
   class="st3_files-and-folder-92"
   d="m 340.9,239.3 c -4.7,6.2 -8.3,13.1 -10.7,20.4 -0.1,0.2 0.1,0.5 0.3,0.6 0.2,0.1 0.5,-0.1 0.6,-0.3 v 0 c 2.4,-7.3 6,-14.1 10.6,-20.2 0.3,-0.5 -0.4,-0.9 -0.8,-0.5 z"
   id="path42" />
	<path
   class="st8_files-and-folder-92"
   d="m 314.9,232.7 c 0,0 -6.5,10.2 1.2,13 7.7,2.8 11.4,-6.9 8.4,-10.4 -3,-3.5 -9.6,-2.6 -9.6,-2.6 z"
   id="path43" />
	<path
   class="st3_files-and-folder-92"
   d="m 327.8,258.8 c -3.4,-9.3 -7.6,-18.3 -12.5,-26.9 -0.1,-0.2 -0.4,-0.3 -0.6,-0.2 -0.2,0.1 -0.3,0.4 -0.2,0.6 4.9,8.5 9.1,17.4 12.4,26.7 0.2,0.6 1.1,0.4 0.9,-0.2 z"
   id="path44" />
</g></g><style
     type="text/css"
     id="style1">
	.st0_files-and-folder-92{fill:#9FBAFF;}
	.st1_files-and-folder-92{fill:url(#SVGID_1_);}
	.st2_files-and-folder-92{fill:url(#SVGID_00000115517214884162514130000015583381908700352929_);}
	.st3_files-and-folder-92{fill:#2E3192;}
	.st4_files-and-folder-92{fill:#F23DB4;}
	.st5_files-and-folder-92{fill:#581B7A;}
	.st6_files-and-folder-92{fill:#FFB9AD;}
	.st7_files-and-folder-92{fill:#FF8C79;}
	.st8_files-and-folder-92{fill:#E0FF4B;}
	.st9_files-and-folder-92{fill:#FFB883;}
	.st10_files-and-folder-92{fill:#EA8E50;}
</style><style
     type="text/css"
     id="style1-3">
	.st0_rocket-launch-1-84{fill:#00275E;}
	.st1_rocket-launch-1-84{fill:#EB773A;}
	.st2_rocket-launch-1-84{fill:#FFAE46;}
	.st3_rocket-launch-1-84{fill:#FAD374;}
	.st4_rocket-launch-1-84{fill:#68E1FD;}
	.st5_rocket-launch-1-84{opacity:0.61;fill:#363636;enable-background:new    ;}
	.st6_rocket-launch-1-84{opacity:0.29;fill:#363636;enable-background:new    ;}
	.st7_rocket-launch-1-84{opacity:0.61;fill:#606060;enable-background:new    ;}
	.st8_rocket-launch-1-84{fill:#FFFFFF;}
	.st9_rocket-launch-1-84{fill:#00AEE1;}
	.st10_rocket-launch-1-84{fill:#8CC63F;}
</style></svg>
