<?xml version="1.0" encoding="UTF-8" standalone="no"?>
<!-- Created with Inkscape (http://www.inkscape.org/) -->

<svg
   width="134.68097mm"
   height="110.25598mm"
   viewBox="0 0 134.68097 110.25598"
   version="1.1"
   id="svg1"
   xml:space="preserve"
   xmlns:inkscape="http://www.inkscape.org/namespaces/inkscape"
   xmlns:sodipodi="http://sodipodi.sourceforge.net/DTD/sodipodi-0.dtd"
   xmlns="http://www.w3.org/2000/svg"
   xmlns:svg="http://www.w3.org/2000/svg"><sodipodi:namedview
     id="namedview1"
     pagecolor="#ffffff"
     bordercolor="#000000"
     borderopacity="0.25"
     inkscape:showpageshadow="2"
     inkscape:pageopacity="0.0"
     inkscape:pagecheckerboard="0"
     inkscape:deskcolor="#d1d1d1"
     inkscape:document-units="mm"><inkscape:page
       x="0"
       y="0"
       width="134.68097"
       height="110.25598"
       id="page2"
       margin="0"
       bleed="0" /></sodipodi:namedview><defs
     id="defs1"><inkscape:path-effect
       effect="bspline"
       id="path-effect33"
       is_visible="true"
       lpeversion="1.3"
       weight="33.333333"
       steps="2"
       helper_size="0"
       apply_no_weight="true"
       apply_with_weight="true"
       only_selected="false"
       uniform="false" /></defs><g
     inkscape:label="Layer 1"
     inkscape:groupmode="layer"
     id="layer1"
     transform="translate(-2.1409249,-257.41352)"><path
       style="fill:#ddff55;fill-opacity:1;stroke-width:0.264583"
       d="m 53.28187,119.74735 c -11.246287,8.04509 -24.050534,14.27874 -26.451299,28.09434 -2.400765,13.8156 5.601889,35.21217 16.13204,44.14159 10.530152,8.92942 23.587112,5.39141 35.549324,6.9078 11.962213,1.51639 22.828975,8.08699 33.316975,6.19148 10.488,-1.89551 20.59662,-12.25684 26.03011,-20.34396 5.4335,-8.08711 6.19165,-13.89956 9.89828,-22.07096 3.70664,-8.1714 10.36147,-18.70121 10.10868,-30.20011 -0.25279,-11.49891 -7.41306,-23.96621 -20.89168,-30.87392 C 123.49567,94.685909 103.69963,93.338093 88.957605,97.592221 74.21558,101.84635 64.528156,111.70225 53.28187,119.74735 Z"
       id="path32"
       inkscape:path-effect="#path-effect33"
       inkscape:original-d="m 54.840343,121.55855 c -12.804762,6.23389 -25.609007,12.46754 -38.413512,18.70131 8.002975,21.39743 16.00563,42.794 24.008444,64.191 13.057487,-3.53816 26.114449,-7.07617 39.171674,-10.61426 10.867196,6.57087 21.733961,13.14146 32.600941,19.7122 10.10902,-10.36175 20.21764,-20.72308 30.32645,-31.08462 0.75818,-5.81269 1.51633,-11.62514 2.27449,-17.43771 6.65511,-10.53023 13.30994,-21.06004 19.96492,-31.59006 -7.16056,-12.46779 -14.32083,-24.93509 -21.48124,-37.402631 -19.79684,-1.347869 -39.59288,-2.695686 -59.389313,-4.043529 -9.687616,9.8561 -19.375042,19.712 -29.062854,29.5683 z"
       sodipodi:nodetypes="ccccccccccc"
       inkscape:export-filename="rocket_linkversity.svg"
       inkscape:export-xdpi="96"
       inkscape:export-ydpi="96"
       transform="translate(-24.261165,162.24654)" /><path
       id="Base_rocket-launch-1-84"
       class="st0_rocket-launch-1-84"
       d="m 79.761568,350.97895 55.694792,-30.1625 c 1.24354,-0.635 1.71979,-2.16958 1.08479,-3.41312 -0.21167,-0.42334 -0.55562,-0.76729 -0.97896,-1.03188 L 81.560735,284.09229 c -0.846667,-0.50271 -1.878542,-0.50271 -2.725209,-0.0265 l -58.922707,33.02 c -1.217083,0.66146 -1.693333,2.19604 -1.031875,3.41312 0.238125,0.42334 0.582083,0.79375 1.031875,1.03188 l 52.546249,29.42166 c 2.248959,1.24355 5.027083,1.27 7.3025,0.0265 z"
       style="stroke-width:0.264583" /><path
       class="st1_rocket-launch-1-84"
       d="m 70.342402,306.18499 c 0,0 -11.27125,6.00605 -13.943542,20.37292 0,0 10.980208,2.32833 25.664583,-9.81604"
       id="path1-6"
       style="stroke-width:0.264583" /><path
       class="st2_rocket-launch-1-84"
       d="m 70.183652,308.01062 c 0,0 -4.815417,4.31271 -6.164792,7.35542 -1.349375,3.0427 -3.122083,7.4877 -3.122083,7.4877 0,0 8.466666,0.71438 16.404166,-4.15395 7.9375,-4.86834 0.396875,-13.97 -7.117291,-10.68917 z"
       id="path2-7"
       style="stroke-width:0.264583" /><path
       class="st3_rocket-launch-1-84"
       d="m 74.97261,306.50249 c -0.291042,0.50271 -5.23875,3.28084 -6.164792,7.3025 l 1.613959,-1.21708 c 0,0 -2.751667,3.83646 -3.915834,6.05896 0,0 6.693959,-2.67229 6.482292,-2.51354 l -1.905,1.42875 c 0,0 5.08,-0.10584 8.546041,-3.20146 3.466042,-3.09563 -1.296458,-8.49313 -1.296458,-8.49313 z"
       id="path3"
       style="stroke-width:0.264583" /><path
       class="st4_rocket-launch-1-84 targetColor"
       d="m 89.921568,306.44958 c 0,0 -0.873125,5.66208 -2.751667,7.09083 -1.878541,1.42875 -7.9375,6.00604 -7.9375,6.00604 l -1.005416,-1.32291 c 0,0 4.180416,-7.46125 4.92125,-10.76855 0.740833,-3.30729 6.773333,-1.00541 6.773333,-1.00541 z"
       style="fill:#68e1fd;stroke-width:0.264583"
       id="path4-5" /><path
       class="st5_rocket-launch-1-84"
       d="m 89.921568,306.44958 c 0,0 -0.873125,5.66208 -2.751667,7.09083 -1.878541,1.42875 -7.9375,6.00604 -7.9375,6.00604 l -1.005416,-1.32291 c 0,0 4.180416,-7.46125 4.92125,-10.76855 0.740833,-3.30729 6.773333,-1.00541 6.773333,-1.00541 z"
       id="path5"
       style="stroke-width:0.264583" /><path
       class="st4_rocket-launch-1-84 targetColor"
       d="m 83.86261,298.48562 c 0,0 -5.688542,-0.68792 -7.567083,0.74083 -1.878542,1.42875 -7.9375,5.97959 -7.9375,5.97959 l 1.005416,1.32291 c 0,0 8.307917,-2.01083 11.694583,-1.82562 3.360209,0.18521 2.804584,-6.21771 2.804584,-6.21771 z"
       style="fill:#68e1fd;stroke-width:0.264583"
       id="path6" /><path
       class="st5_rocket-launch-1-84"
       d="m 83.86261,298.48562 c 0,0 -5.688542,-0.68792 -7.567083,0.74083 -1.878542,1.42875 -7.9375,5.97959 -7.9375,5.97959 l 1.005416,1.32291 c 0,0 8.307917,-2.01083 11.694583,-1.82562 3.360209,0.18521 2.804584,-6.21771 2.804584,-6.21771 z"
       id="path7-3"
       style="stroke-width:0.264583" /><path
       class="st4_rocket-launch-1-84 targetColor"
       d="m 111.22053,288.93416 c 1.50812,-2.35479 2.7252,-4.86833 3.62479,-7.51417 0,0 -3.30729,0.0265 -8.255,1.50813 0.39687,2.54 2.40771,4.55083 4.63021,6.00604 z"
       style="fill:#68e1fd;stroke-width:0.264583"
       id="path8-5" /><ellipse
       transform="rotate(-37.148347)"
       class="st4_rocket-launch-1-84 targetColor"
       cx="-102.58588"
       cy="293.56326"
       rx="3.5719886"
       ry="4.0482535"
       style="fill:#68e1fd;stroke-width:0.264592"
       id="ellipse8" /><path
       class="st4_rocket-launch-1-84 targetColor"
       d="m 126.40761,272.52999 c 0,0 -31.167917,7.7523 -47.016459,30.69167 0,0 -3.730624,3.96875 -1.931458,6.16479 1.799167,2.19604 7.77875,0.44979 7.77875,0.44979 0,0 19.684997,-5.5827 41.169167,-37.30625 z"
       style="fill:#ffb9ad;fill-opacity:1;stroke-width:0.264583"
       id="path9-6" /><path
       class="st4_rocket-launch-1-84 targetColor"
       d="m 79.391151,303.22166 c 0,0 -3.915833,-0.47625 -5.212291,0.50271 -1.296458,0.97896 -5.476875,4.15396 -5.476875,4.15396 l 0.687917,0.92604 c 0,0 5.741458,-1.37583 8.069791,-1.27 2.328333,0.10583 1.931458,-4.31271 1.931458,-4.31271 z"
       style="fill:#68e1fd;stroke-width:0.264583"
       id="path10-2" /><path
       class="st4_rocket-launch-1-84 targetColor"
       d="m 84.127193,309.46583 c 0,0 -0.608542,3.91583 -1.878542,4.89479 l -5.476875,4.15396 -0.687916,-0.92604 c 0,0 2.883958,-5.13292 3.386666,-7.40834 0.502709,-2.27541 4.656667,-0.71437 4.656667,-0.71437 z"
       style="fill:#68e1fd;stroke-width:0.264583"
       id="path11-9" /><path
       class="st6_rocket-launch-1-84"
       d="m 79.391151,303.22166 c 0,0 -3.915833,-0.47625 -5.212291,0.50271 -1.296458,0.97896 -5.476875,4.15396 -5.476875,4.15396 l 0.687917,0.92604 c 0,0 5.741458,-1.37583 8.069791,-1.27 2.328333,0.10583 1.931458,-4.31271 1.931458,-4.31271 z"
       id="path12-1"
       style="stroke-width:0.264583" /><path
       class="st6_rocket-launch-1-84"
       d="m 84.127193,309.46583 c 0,0 -0.608542,3.91583 -1.878542,4.89479 l -5.476875,4.15396 -0.687916,-0.92604 c 0,0 2.883958,-5.13292 3.386666,-7.40834 0.502709,-2.27541 4.656667,-0.71437 4.656667,-0.71437 z"
       id="path13-2"
       style="stroke-width:0.264583" /><path
       class="st4_rocket-launch-1-84 targetColor"
       d="m 111.24698,278.1127 c 0,0 -0.10583,5.26521 5.47688,7.22313 l -3.22792,3.67771 c 0,0 -7.01146,-3.9423 -5.92666,-9.10167 z"
       style="fill:#68e1fd;stroke-width:0.264583"
       id="path14-7" /><path
       class="st4_rocket-launch-1-84 targetColor"
       d="m 91.244485,290.33645 c 0,0 0.05292,8.91646 8.387291,11.45646 l -6.19125,4.23333 c 0,0 -8.942916,-3.09562 -7.276041,-11.03312 z"
       style="fill:#68e1fd;stroke-width:0.264583"
       id="path15-0" /><circle
       class="st4_rocket-launch-1-84 targetColor"
       cx="105.53198"
       cy="288.03458"
       r="1.27"
       style="fill:#68e1fd;stroke-width:0.264583"
       id="circle15" /><circle
       class="st4_rocket-launch-1-84 targetColor"
       cx="99.658234"
       cy="292.50604"
       r="3.2808332"
       style="fill:#68e1fd;stroke-width:0.264583"
       id="circle16" /><path
       class="st7_rocket-launch-1-84"
       d="m 111.24698,278.1127 c 0,0 -0.10583,5.26521 5.47688,7.22313 l -3.22792,3.67771 c 0,0 -7.01146,-3.9423 -5.92666,-9.10167 z"
       id="path16-9"
       style="stroke-width:0.264583" /><path
       class="st7_rocket-launch-1-84"
       d="m 91.244485,290.33645 c 0,0 0.05292,8.91646 8.387291,11.45646 l -6.19125,4.23333 c 0,0 -8.942916,-3.09562 -7.276041,-11.03312 z"
       id="path17-3"
       style="stroke-width:0.264583" /><circle
       class="st7_rocket-launch-1-84"
       cx="105.53198"
       cy="288.03458"
       r="1.27"
       id="circle17"
       style="stroke-width:0.264583" /><circle
       class="st7_rocket-launch-1-84"
       cx="99.658234"
       cy="292.50604"
       r="3.2808332"
       id="circle18"
       style="stroke-width:0.264583" /><g
       id="Star_and_Planet_rocket-launch-1-84"
       transform="matrix(0.26458333,0,0,0.26458333,10.149694,245.93937)">
	<path
   class="st8_rocket-launch-1-84"
   d="m 404.7,249.6 c -0.8,0.1 -1.4,0.7 -1.3,1.5 0.1,0.7 0.6,1.2 1.3,1.3 0.8,-0.1 1.4,-0.7 1.3,-1.5 0,-0.7 -0.6,-1.2 -1.3,-1.3 z"
   id="path18" />
	<path
   class="st8_rocket-launch-1-84"
   d="m 333.5,305.6 v 0.9 c 0.1,0.8 0.7,1.4 1.5,1.3 0.7,-0.1 1.2,-0.6 1.3,-1.3 v -0.9 c -0.1,-0.8 -0.7,-1.4 -1.5,-1.3 -0.7,0.1 -1.2,0.6 -1.3,1.3 z"
   id="path19" />
	<path
   class="st8_rocket-launch-1-84"
   d="m 235.1,328 v 0.9 c 0.1,0.8 0.7,1.4 1.5,1.3 0.7,-0.1 1.2,-0.6 1.3,-1.3 V 328 c -0.1,-0.8 -0.7,-1.4 -1.5,-1.3 -0.7,0.1 -1.3,0.6 -1.3,1.3 z"
   id="path20" />
	<path
   class="st8_rocket-launch-1-84"
   d="m 326.9,259.5 c -0.8,0.1 -1.4,0.7 -1.3,1.5 0.1,0.7 0.6,1.2 1.3,1.3 0.8,-0.1 1.4,-0.7 1.3,-1.5 -0.1,-0.7 -0.6,-1.3 -1.3,-1.3 z"
   id="path21" />
	<path
   class="st8_rocket-launch-1-84"
   d="m 158.6,256.8 c -0.8,0.1 -1.4,0.7 -1.3,1.5 0.1,0.7 0.6,1.2 1.3,1.3 0.8,-0.1 1.4,-0.7 1.3,-1.5 -0.1,-0.7 -0.6,-1.3 -1.3,-1.3 z"
   id="path22" />
	<path
   class="st8_rocket-launch-1-84"
   d="m 95.4,260.9 v 0.9 c 0,0.8 0.6,1.4 1.4,1.4 0.8,0 1.4,-0.6 1.4,-1.4 v -0.9 c 0,-0.8 -0.6,-1.4 -1.4,-1.4 -0.7,0 -1.4,0.6 -1.4,1.4 z"
   id="path23" />
	<path
   class="st8_rocket-launch-1-84"
   d="m 125.5,305.1 c -0.8,0.1 -1.4,0.7 -1.3,1.5 0.1,0.7 0.6,1.2 1.3,1.3 0.8,-0.1 1.4,-0.7 1.3,-1.5 -0.1,-0.7 -0.6,-1.2 -1.3,-1.3 z"
   id="path24" />
	<path
   class="st8_rocket-launch-1-84"
   d="m 172,225.4 c -0.8,0 -1.4,0.6 -1.4,1.4 0,0.8 0.6,1.4 1.4,1.4 0.8,0 1.4,-0.6 1.4,-1.4 0,-0.8 -0.6,-1.4 -1.4,-1.4 z"
   id="path25" />
	<path
   class="st8_rocket-launch-1-84"
   d="m 241,180.7 c -0.8,0.1 -1.4,0.7 -1.3,1.5 0.1,0.7 0.6,1.2 1.3,1.3 0.8,-0.1 1.4,-0.7 1.3,-1.5 -0.1,-0.7 -0.6,-1.2 -1.3,-1.3 z"
   id="path26" />
	<path
   class="st8_rocket-launch-1-84"
   d="m 283,356.1 c -0.8,0.1 -1.4,0.7 -1.3,1.5 0.1,0.7 0.6,1.2 1.3,1.3 0.8,-0.1 1.4,-0.7 1.3,-1.5 -0.1,-0.7 -0.6,-1.2 -1.3,-1.3 z"
   id="path27" />
	<path
   class="st2_rocket-launch-1-84"
   d="m 376.1,277.1 c -9,0 -9.1,14.1 0,14.1 9.1,0 9.1,-14.1 0,-14.1 z"
   id="path28" />
	<path
   class="st2_rocket-launch-1-84"
   d="m 123.7,269.1 c -9,0 -9.1,14 0,14 9.1,0 9.1,-14 0,-14 z"
   id="path29" />
	<path
   class="st9_rocket-launch-1-84"
   d="m 258.5,361.5 c -2.7,-2.7 -7.2,-2.8 -9.9,0 0,0 0,0 0,0 -1.3,1.3 -2,3.1 -2.1,5 v 0.9 c 0,1.9 0.8,3.7 2.1,5 2.7,2.7 7.2,2.8 9.9,0 0,0 0,0 0,0 1.3,-1.3 2,-3.1 2.1,-5 v -0.9 c -0.1,-1.9 -0.8,-3.6 -2.1,-5 z"
   id="path30" />
</g><g
       id="Planet_rocket-launch-1-84"
       transform="matrix(0.26458333,0,0,0.26458333,10.149694,245.93937)">
	<circle
   class="st4_rocket-launch-1-84 targetColor"
   cx="129.8"
   cy="142.8"
   r="30.6"
   style="fill:#68e1fd"
   id="circle30" />
	<path
   class="st10_rocket-launch-1-84"
   d="m 154.8,126 c 5.3,-1.3 28.4,-6.4 23.5,5 -2,3.9 -5.5,6.8 -8.8,9.4 -5.3,4.1 -10.9,7.9 -16.7,11.1 -11.6,6.7 -23.8,12.1 -36.6,16.2 -6.4,2.2 -13.1,3.5 -19.9,4 -5.8,0.5 -16.1,-1.3 -14.5,-9.1 2,-7 9.9,-12.5 15.7,-16.3 -8.5,7.5 -24.1,23.3 -1.4,22 12.8,-1.4 25.3,-6.4 37.2,-11.4 9.4,-4.1 41.1,-19.4 43.4,-28.9 -0.5,-4.6 -18.1,-2.4 -21.9,-2 z"
   id="path31" />
</g></g><style
     type="text/css"
     id="style1">
	.st0_files-and-folder-92{fill:#9FBAFF;}
	.st1_files-and-folder-92{fill:url(#SVGID_1_);}
	.st2_files-and-folder-92{fill:url(#SVGID_00000115517214884162514130000015583381908700352929_);}
	.st3_files-and-folder-92{fill:#2E3192;}
	.st4_files-and-folder-92{fill:#F23DB4;}
	.st5_files-and-folder-92{fill:#581B7A;}
	.st6_files-and-folder-92{fill:#FFB9AD;}
	.st7_files-and-folder-92{fill:#FF8C79;}
	.st8_files-and-folder-92{fill:#E0FF4B;}
	.st9_files-and-folder-92{fill:#FFB883;}
	.st10_files-and-folder-92{fill:#EA8E50;}
</style><style
     type="text/css"
     id="style1-3">
	.st0_rocket-launch-1-84{fill:#00275E;}
	.st1_rocket-launch-1-84{fill:#EB773A;}
	.st2_rocket-launch-1-84{fill:#FFAE46;}
	.st3_rocket-launch-1-84{fill:#FAD374;}
	.st4_rocket-launch-1-84{fill:#68E1FD;}
	.st5_rocket-launch-1-84{opacity:0.61;fill:#363636;enable-background:new    ;}
	.st6_rocket-launch-1-84{opacity:0.29;fill:#363636;enable-background:new    ;}
	.st7_rocket-launch-1-84{opacity:0.61;fill:#606060;enable-background:new    ;}
	.st8_rocket-launch-1-84{fill:#FFFFFF;}
	.st9_rocket-launch-1-84{fill:#00AEE1;}
	.st10_rocket-launch-1-84{fill:#8CC63F;}
</style></svg>
