<?xml version="1.0" encoding="UTF-8" standalone="no"?>
<!-- Created with Inkscape (http://www.inkscape.org/) -->

<svg
   width="131.47089mm"
   height="130.9063mm"
   viewBox="0 0 131.47089 130.9063"
   version="1.1"
   id="svg1"
   xml:space="preserve"
   xmlns:inkscape="http://www.inkscape.org/namespaces/inkscape"
   xmlns:sodipodi="http://sodipodi.sourceforge.net/DTD/sodipodi-0.dtd"
   xmlns="http://www.w3.org/2000/svg"
   xmlns:svg="http://www.w3.org/2000/svg"><sodipodi:namedview
     id="namedview1"
     pagecolor="#ffffff"
     bordercolor="#000000"
     borderopacity="0.25"
     inkscape:showpageshadow="2"
     inkscape:pageopacity="0.0"
     inkscape:pagecheckerboard="0"
     inkscape:deskcolor="#d1d1d1"
     inkscape:document-units="mm"><inkscape:page
       x="0"
       y="5.7406234e-13"
       width="131.47089"
       height="130.9063"
       id="page2"
       margin="0"
       bleed="0" /></sodipodi:namedview><defs
     id="defs1"><inkscape:path-effect
       effect="bspline"
       id="path-effect74"
       is_visible="true"
       lpeversion="1.3"
       weight="33.333333"
       steps="2"
       helper_size="0"
       apply_no_weight="true"
       apply_with_weight="true"
       only_selected="false"
       uniform="false" /><style
       id="style1-6">.cls-1_mountain-1-28{fill:#ff912e;}.cls-2_mountain-1-28{fill:#cc630d;}.cls-3_mountain-1-28{fill:#fcd5b9;}.cls-4_mountain-1-28{fill:#68e1fd;}.cls-5_mountain-1-28,.cls-6_mountain-1-28{fill:#351b0c;}.cls-5_mountain-1-28{opacity:0.24;}.cls-6_mountain-1-28{opacity:0.4;}.cls-11_mountain-1-28,.cls-12_mountain-1-28,.cls-13_mountain-1-28,.cls-7_mountain-1-28{opacity:0.68;}.cls-7_mountain-1-28{fill:url(#linear-gradient);}.cls-8_mountain-1-28{fill:#bc532a;}.cls-9_mountain-1-28{fill:#2c9135;}.cls-10_mountain-1-28{fill:#156819;}.cls-11_mountain-1-28{fill:url(#linear-gradient-2-mountain-1-28);}.cls-12_mountain-1-28{fill:url(#linear-gradient-3-mountain-1-28);}.cls-13_mountain-1-28{fill:url(#linear-gradient-4-mountain-1-28);}</style></defs><g
     inkscape:label="Layer 1"
     inkscape:groupmode="layer"
     id="layer1"
     transform="translate(-109.19821,-576.29978)"><path
       style="fill:#ddff55;fill-opacity:1;stroke-width:0.264583"
       d="m 53.28187,119.74735 c -11.246287,8.04509 -24.050534,14.27874 -26.451299,28.09434 -2.400765,13.8156 5.601889,35.21217 16.13204,44.14159 10.530152,8.92942 23.587112,5.39141 35.549324,6.9078 11.962213,1.51639 22.828975,8.08699 33.316975,6.19148 10.488,-1.89551 20.59662,-12.25684 26.03011,-20.34396 5.4335,-8.08711 6.19165,-13.89956 9.89828,-22.07096 3.70664,-8.1714 10.36147,-18.70121 10.10868,-30.20011 -0.25279,-11.49891 -7.41306,-23.96621 -20.89168,-30.87392 C 123.49567,94.685909 103.69963,93.338093 88.957605,97.592221 74.21558,101.84635 64.528156,111.70225 53.28187,119.74735 Z"
       id="path72"
       inkscape:path-effect="#path-effect74"
       inkscape:original-d="m 54.840343,121.55855 c -12.804762,6.23389 -25.609007,12.46754 -38.413512,18.70131 8.002975,21.39743 16.00563,42.794 24.008444,64.191 13.057487,-3.53816 26.114449,-7.07617 39.171674,-10.61426 10.867196,6.57087 21.733961,13.14146 32.600941,19.7122 10.10902,-10.36175 20.21764,-20.72308 30.32645,-31.08462 0.75818,-5.81269 1.51633,-11.62514 2.27449,-17.43771 6.65511,-10.53023 13.30994,-21.06004 19.96492,-31.59006 -7.16056,-12.46779 -14.32083,-24.93509 -21.48124,-37.402631 -19.79684,-1.347869 -39.59288,-2.695686 -59.389313,-4.043529 -9.687616,9.8561 -19.375042,19.712 -29.062854,29.5683 z"
       sodipodi:nodetypes="ccccccccccc"
       inkscape:export-filename="discover_linkversity.svg"
       inkscape:export-xdpi="96"
       inkscape:export-ydpi="96"
       transform="translate(82.796131,501.78309)" /><g
       id="Base_cybersecurity-95"
       transform="matrix(0.26458333,0,0,0.26458333,115.52417,566.82769)"
       style="fill:#fecab5;fill-opacity:1">
	<path
   class="st0_cybersecurity-95 targetColor"
   d="m 65.6,346.2 178.6,103.1 c 7,4 15.7,4 22.7,0 L 454.1,341.5 c 4.5,-2.7 6.1,-8.5 3.4,-13.1 -0.8,-1.4 -1.9,-2.5 -3.3,-3.4 l -184,-110.7 c -3,-1.9 -6.8,-1.9 -9.8,0 L 65.8,329.6 c -4.5,2.6 -6,8.4 -3.4,12.9 0,0.1 0.1,0.1 0.1,0.2 0.7,1.5 1.7,2.7 3.1,3.5 z"
   style="fill:#fecab5;fill-opacity:1"
   id="path1-9" />
</g><g
       id="Shadow_cybersecurity-95"
       transform="matrix(0.26458333,0,0,0.26458333,115.52417,566.82769)">
	
		<linearGradient
   id="SVGID_1_-cybersecurity-95"
   gradientUnits="userSpaceOnUse"
   x1="211.9872"
   y1="1836.7074"
   x2="360.23721"
   y2="1691.4674"
   gradientTransform="translate(0,-1443.47)">
		<stop
   offset="0"
   style="stop-color:#000000;stop-opacity:0"
   id="stop1-09" />
		<stop
   offset="1"
   style="stop-color:#000000"
   id="stop2-1" />
	</linearGradient>
	<path
   class="st1_cybersecurity-95"
   d="m 216.2,343.7 -81.3,42.2 c 0,0 49.5,32.1 81.8,47.2 l 100,-59.5"
   id="path2-77" />
	
		<linearGradient
   id="SVGID_00000137105316838804979450000001523921904447533976_-cybersecurity-95"
   gradientUnits="userSpaceOnUse"
   x1="119.0001"
   y1="-611.15021"
   x2="243.4801"
   y2="-520.66022"
   gradientTransform="matrix(1,0,0,-1,0,-276)">
		<stop
   offset="0"
   style="stop-color:#000000;stop-opacity:0"
   id="stop3-1" />
		<stop
   offset="1"
   style="stop-color:#000000"
   id="stop4-1" />
	</linearGradient>
	<path
   style="opacity:0.62;fill:url(#SVGID_00000137105316838804979450000001523921904447533976_);enable-background:new"
   d="m 153.6,299 -58.7,38.1 c 0,0 -12.5,-1.9 19.9,13.2 l 64,-41.7"
   id="path4-59" />
</g><g
       id="Tablet_cybersecurity-95"
       transform="matrix(0.26458333,0,0,0.26458333,115.52417,566.82769)">
	<path
   class="st3_cybersecurity-95"
   d="M 364.3,102 249.4,36.7 c -2.3,-1.2 -5,-1.2 -7.3,0 v 0 l -7.8,4 3.9,1.3 c 0,0.5 -0.2,0.8 -0.2,1.2 L 235.8,274 c -0.1,6.6 3.4,12.7 9.2,15.9 l 115.4,65.2 c 0.2,0.2 0.5,0.3 0.8,0.3 l -1.4,3.6 7.2,-3.4 c 0.5,-0.2 1,-0.5 1.4,-0.8 v 0 c 2.1,-1.4 3.4,-3.7 3.4,-6.2 V 114.8 c 0,-5.3 -2.9,-10.2 -7.5,-12.8 z"
   id="path5-7" />
	<path
   class="st4_cybersecurity-95"
   d="m 237.7,293.5 115.4,65.2 c 3.6,2 8.2,0.8 10.3,-2.8 0.6,-1.2 0.9,-2.4 0.9,-3.7 V 118.3 c 0,-5.3 -2.8,-10.2 -7.5,-12.8 L 241.9,40.3 c -3.6,-2 -8.2,-0.8 -10.3,2.8 -0.6,1.1 -0.9,2.3 -0.9,3.6 l -2.2,230.8 c -0.1,6.6 3.4,12.8 9.2,16 z"
   id="path6-7" />
	<polygon
   class="st5_cybersecurity-95"
   points="236.6,279.7 355.1,346.6 355.1,124.3 238.6,58.2 "
   id="polygon6-6" />
</g><polygon
       class="st6_cybersecurity-95"
       points="71.1,240.4 65.5,249.9 72.5,253.4 76.7,249.5 82.6,242.8 "
       id="polygon7-7"
       transform="matrix(0.26458333,0,0,0.26458333,115.52417,566.82769)" /><path
       class="st3_cybersecurity-95"
       d="m 157.64584,591.67206 -10.34521,4.8948 -1.48167,4.49791 -15.24,8.28146 c -0.47625,0.23813 -0.74083,0.74083 -0.66146,1.27 l 2.88396,22.33083 28.23104,-16.48354 -1.69333,-19.02354 c -0.0265,-0.79375 -0.42333,-3.62479 -0.66146,-5.15937 -0.0794,-0.42334 -0.44979,-0.71438 -0.87312,-0.66146 -0.0529,0 -0.10584,0.0265 -0.15875,0.0529 z"
       id="path7-36"
       style="stroke-width:0.264583" /><path
       class="st0_cybersecurity-95 targetColor"
       d="m 161.93209,593.52415 -11.21834,5.82083 -1.48166,3.70417 -13.83771,7.91104 c -0.42334,0.23812 -0.68792,0.71437 -0.68792,1.19062 v 21.7223 l 28.23104,-16.48355 v -22.5425 l -0.0265,-0.74083 c -0.0265,-0.37042 -0.3175,-0.635 -0.68791,-0.60854 0,0 0,0 -0.0265,0 -0.10583,-0.0265 -0.18521,0 -0.26458,0.0265 z"
       style="fill:#fecab5;fill-opacity:1;stroke-width:0.264583"
       id="path8-56" /><polygon
       class="st0_cybersecurity-95 targetColor"
       points="343.7,282 343.7,232.9 323.3,220.8 323.3,269.2 "
       style="fill:#68e1fd"
       id="polygon8"
       transform="matrix(0.26458333,0,0,0.26458333,115.52417,566.82769)" /><polygon
       class="st4_cybersecurity-95"
       points="329.2,244.3 329.2,234.7 324.9,231.9 324.9,241.5 "
       id="polygon9"
       transform="matrix(0.26458333,0,0,0.26458333,115.52417,566.82769)" /><polygon
       class="st4_cybersecurity-95"
       points="335.5,247.7 335.5,238.1 331.1,235.3 331.1,244.9 "
       id="polygon10"
       transform="matrix(0.26458333,0,0,0.26458333,115.52417,566.82769)" /><polygon
       class="st4_cybersecurity-95"
       points="341.7,251.5 341.7,241.7 337.4,238.9 337.4,248.5 "
       id="polygon11-3"
       transform="matrix(0.26458333,0,0,0.26458333,115.52417,566.82769)" /><polygon
       class="st4_cybersecurity-95"
       points="329.2,256.9 329.2,247.3 324.9,244.3 324.9,254.1 "
       id="polygon12-9"
       transform="matrix(0.26458333,0,0,0.26458333,115.52417,566.82769)" /><polygon
       class="st4_cybersecurity-95"
       points="335.5,260.4 335.5,250.5 331.1,247.7 331.1,257.5 "
       id="polygon13-4"
       transform="matrix(0.26458333,0,0,0.26458333,115.52417,566.82769)" /><polygon
       class="st4_cybersecurity-95"
       points="341.7,264.1 341.7,254.3 337.4,251.5 337.4,261.1 "
       id="polygon14-8"
       transform="matrix(0.26458333,0,0,0.26458333,115.52417,566.82769)" /><polygon
       class="st4_cybersecurity-95"
       points="329.2,269.5 329.2,259.7 324.9,256.9 324.9,266.6 "
       id="polygon15-1"
       transform="matrix(0.26458333,0,0,0.26458333,115.52417,566.82769)" /><polygon
       class="st4_cybersecurity-95"
       points="335.5,273 335.5,263.2 331.1,260.4 331.1,270 "
       id="polygon16-2"
       transform="matrix(0.26458333,0,0,0.26458333,115.52417,566.82769)" /><polygon
       class="st4_cybersecurity-95"
       points="341.7,276.5 341.7,266.7 337.4,263.9 337.4,273.6 "
       id="polygon17"
       transform="matrix(0.26458333,0,0,0.26458333,115.52417,566.82769)" /><g
       id="Key_cybersecurity-95"
       transform="matrix(0.26458333,0,0,0.26458333,115.52417,566.82769)">
	<path
   class="st9_cybersecurity-95"
   d="m 304,218.2 c 0,0 10.4,-6.7 10.4,-6.9 0,-0.2 -6.9,-5.4 -6.9,-5.4 l -4,7.6"
   id="path30-1" />
	<polyline
   class="st9_cybersecurity-95"
   points="263.7,136.7 272.9,130.6 275.2,142.9 265.9,141.1 	"
   id="polyline30" />
	<path
   class="st3_cybersecurity-95"
   d="m 276.5,130.3 c -1.6,-0.9 -3.6,-0.3 -4.5,1.2 -0.3,0.5 -0.5,1 -0.5,1.6 l -1.1,52.3 c 0,1.6 0.9,3.2 2.3,4 l 36.8,22 c 2.1,1.3 5,0.7 6.3,-1.5 0.5,-0.8 0.7,-1.7 0.7,-2.6 v -51.2 c 0,-1.7 -1,-3.3 -2.5,-4.1 z"
   id="path31-1" />
	<path
   class="st4_cybersecurity-95"
   d="m 266.7,136.9 c -1.6,-0.9 -3.6,-0.3 -4.5,1.2 -0.3,0.5 -0.5,1 -0.5,1.6 l -1.1,52.3 c 0,1.6 0.9,3.2 2.3,4 l 36.8,22 c 2.1,1.3 5,0.7 6.3,-1.5 0.5,-0.8 0.7,-1.7 0.7,-2.6 v -51.2 c 0,-1.7 -1,-3.3 -2.5,-4.1 z"
   id="path32-5" />
	
		<ellipse
   transform="matrix(0.9968,-0.07950302,0.07950302,0.9968,-12.4901,22.9575)"
   class="st0_cybersecurity-95 targetColor"
   cx="282.10001"
   cy="168.3"
   rx="7.9000001"
   ry="12.6"
   style="fill:#68e1fd"
   id="ellipse32" />
	<path
   class="st0_cybersecurity-95 targetColor"
   d="m 280.2,170.2 h 1.6 c 1.2,0 2.2,0.9 2.2,2.1 0,0 0,0.1 0,0.1 v 20.4 c 0,1.2 -0.9,2.1 -2.1,2.2 0,0 -0.1,0 -0.1,0 h -1.6 c -1.2,0 -2.2,-0.9 -2.2,-2.1 0,0 0,-0.1 0,-0.1 v -20.4 c 0,-1.2 0.9,-2.2 2.2,-2.2 -0.1,0 0,0 0,0 z"
   style="fill:#68e1fd"
   id="path33-9" />
	<ellipse
   class="st0_cybersecurity-95 targetColor"
   cx="302.29999"
   cy="151.5"
   rx="3.7"
   ry="2.3"
   style="fill:#68e1fd"
   id="ellipse33" />
	<path
   class="st0_cybersecurity-95 targetColor"
   d="m 291,111 c -17.8,-4.4 -17.6,16.3 -17.6,16.3 v 7.3 c -0.1,1.1 0,2.2 0.3,3.3 0.8,0.9 2,1.4 3.3,1.2 1.1,0 2.6,-0.2 3.1,-1.1 0.3,-0.9 0.4,-1.9 0.3,-2.8 -0.2,-1.7 -0.2,-3.4 -0.2,-5.1 0.2,-3.7 0.5,-8.3 2.8,-11.2 1.6,-2 4.3,-2.7 6.7,-1.7 9.2,3.1 8.9,14 8.9,14 v 20.2 h 7.6 v -20.8 c 0.1,0 -1.4,-16.3 -15.2,-19.6 z"
   style="fill:#68e1fd"
   id="path34-8" />
</g><g
       id="Plant_cybersecurity-95"
       transform="matrix(0.26458333,0,0,0.26458333,115.52417,566.82769)">
	<path
   class="st0_cybersecurity-95 targetColor"
   d="m 144.7,292.4 c 0,0 2.8,17 20.1,18.5 23,2 24.1,-18.5 24.1,-18.5"
   style="fill:#68e1fd"
   id="path35-4" />
	<path
   class="st10_cybersecurity-95"
   d="m 158.7,292.7 h -14 c 0,0 2.5,15.4 17.8,18.2 -4.4,-4.9 -5.9,-11.9 -3.8,-18.2 z"
   id="path36-8" />
	<ellipse
   class="st8_cybersecurity-95"
   cx="166.8"
   cy="292.39999"
   rx="22.1"
   ry="6.5"
   id="ellipse36-1" />
	<path
   class="st11_cybersecurity-95"
   d="m 188,278.1 c -4.1,-1.2 -8.9,0.5 -12.3,2.6 -1.1,0.7 -2.2,1.6 -3.1,2.5 -0.4,0.2 -0.8,0.4 -1.2,0.6 1.9,-5.3 3,-10.8 0.3,-16.2 -1.4,-2.8 -5.4,-7.2 -8.7,-4.2 -1.3,1.4 -1.9,3.2 -1.7,5 0,2.3 0.3,4.5 0.9,6.7 0.6,2.5 1.4,5 2,7.5 0.2,0.5 0.2,0.9 0.3,1.4 -2,-2 -4.1,-4 -6.4,-5.8 l -1.4,-0.9 c -2.2,-2.2 -5.1,-3.7 -8.2,-4 -1.9,-0.4 -3.9,0 -5.6,1.1 -1.6,1.3 -2.2,3.4 -1.6,5.3 0.9,4.4 5,7.8 8.7,10 4.1,2.5 8.8,3.9 13.6,4 0.3,0.2 0.6,0.3 0.9,0.3 5,0.2 10,-0.3 14.9,-1.4 4.1,-0.9 9.2,-2.2 12,-5.6 2.8,-3.4 0.7,-7.8 -3.4,-8.9 z"
   id="path37-03" />
	<path
   class="st8_cybersecurity-95"
   d="m 184.6,282.5 c -4.4,4.4 -10.1,6.4 -15.4,9.2 0.2,-8.6 -0.5,-17.1 -2,-25.5 -0.1,-0.9 -1.7,-0.6 -1.6,0.5 1.5,8.3 2.2,16.8 2,25.2 -7.2,-4.8 -14.2,-9.8 -21,-15 -0.8,-0.6 -1.6,0.8 -0.8,1.4 6.9,5.1 13.9,10 20.9,14.8 l -0.9,0.6 c -0.8,0.6 0,1.9 0.8,1.4 l 0.9,-0.6 v 0.5 c 0,0.4 0.4,0.8 0.8,0.8 0.4,0 0.8,-0.3 0.8,-0.8 v -0.1 l 0.6,0.3 c 0.8,0.6 1.6,-0.8 0.8,-1.4 l -0.8,-0.5 c 5.6,-3 11.5,-5.1 16,-9.6 0.8,-0.8 -0.3,-1.9 -1.1,-1.2 z"
   id="path38-0" />
</g></g><style
     type="text/css"
     id="style1">
	.st0_files-and-folder-92{fill:#9FBAFF;}
	.st1_files-and-folder-92{fill:url(#SVGID_1_);}
	.st2_files-and-folder-92{fill:url(#SVGID_00000115517214884162514130000015583381908700352929_);}
	.st3_files-and-folder-92{fill:#2E3192;}
	.st4_files-and-folder-92{fill:#F23DB4;}
	.st5_files-and-folder-92{fill:#581B7A;}
	.st6_files-and-folder-92{fill:#FFB9AD;}
	.st7_files-and-folder-92{fill:#FF8C79;}
	.st8_files-and-folder-92{fill:#E0FF4B;}
	.st9_files-and-folder-92{fill:#FFB883;}
	.st10_files-and-folder-92{fill:#EA8E50;}
</style><style
     type="text/css"
     id="style1-3">
	.st0_rocket-launch-1-84{fill:#00275E;}
	.st1_rocket-launch-1-84{fill:#EB773A;}
	.st2_rocket-launch-1-84{fill:#FFAE46;}
	.st3_rocket-launch-1-84{fill:#FAD374;}
	.st4_rocket-launch-1-84{fill:#68E1FD;}
	.st5_rocket-launch-1-84{opacity:0.61;fill:#363636;enable-background:new    ;}
	.st6_rocket-launch-1-84{opacity:0.29;fill:#363636;enable-background:new    ;}
	.st7_rocket-launch-1-84{opacity:0.61;fill:#606060;enable-background:new    ;}
	.st8_rocket-launch-1-84{fill:#FFFFFF;}
	.st9_rocket-launch-1-84{fill:#00AEE1;}
	.st10_rocket-launch-1-84{fill:#8CC63F;}
</style><style
     type="text/css"
     id="style1-7">
	.st0_brainstorming-8{fill:#FECAB5;}
	.st1_brainstorming-8{fill:url(#SVGID_1_);}
	.st2_brainstorming-8{fill:url(#SVGID_00000070088870942748995910000008157697380455896196_);}
	.st3_brainstorming-8{fill:url(#SVGID_00000047041480737490368350000004261058968769754763_);}
	.st4_brainstorming-8{fill:url(#SVGID_00000162343835082320139540000003776312126409395859_);}
	.st5_brainstorming-8{fill:#311F1D;}
	.st6_brainstorming-8{fill:#68E1FD;}
	.st7_brainstorming-8{opacity:0.29;fill:#311F1D;enable-background:new    ;}
	.st8_brainstorming-8{opacity:7.000000e-02;fill:#311F1D;enable-background:new    ;}
	.st9_brainstorming-8{fill:#F78F38;}
	.st10_brainstorming-8{fill:#E86E43;}
	.st11_brainstorming-8{fill:#6B5151;}
	.st12_brainstorming-8{fill:#F9AA43;}
	.st13_brainstorming-8{fill:#FFFFFF;}
	.st14_brainstorming-8{fill:#F5A580;}
	.st15_brainstorming-8{fill:#A0391A;}
</style><style
     type="text/css"
     id="style1-4">
	.st0_cybersecurity-95{fill:#68E1FD;}
	.st1_cybersecurity-95{opacity:0.62;fill:url(#SVGID_1_);enable-background:new    ;}
	.st2_cybersecurity-95{opacity:0.62;fill:url(#SVGID_00000027588938040584856290000006631031239802901639_);enable-background:new    ;}
	.st3_cybersecurity-95{fill:#2C2CB5;}
	.st4_cybersecurity-95{fill:#5F5CEA;}
	.st5_cybersecurity-95{fill:#E2F2EE;}
	.st6_cybersecurity-95{fill:#467EC1;}
	.st7_cybersecurity-95{fill:#F8951D;}
	.st8_cybersecurity-95{fill:#393B5B;}
	.st9_cybersecurity-95{fill:#3D65AF;}
	.st10_cybersecurity-95{opacity:0.37;fill:#393B5B;enable-background:new    ;}
	.st11_cybersecurity-95{fill:#D9E021;}
</style></svg>
